<svg width="466" height="141" viewBox="0 0 466 141" fill="none" xmlns="http://www.w3.org/2000/svg">
<g filter="url(#filter0_d)">
<path fill-rule="evenodd" clip-rule="evenodd" d="M16.4218 14.5397C16 15.3839 16 16.4852 16 18.6876V85.9676C16 88.1701 16 89.2714 16.4218 90.1156C16.809 90.8904 17.4372 91.5186 18.2121 91.9058C19.0563 92.3276 20.1575 92.3276 22.36 92.3276H28.393C31.4649 96.887 34.7227 100.328 36.5 100.328C38.2773 100.328 41.5351 96.887 44.607 92.3276H435.64C437.842 92.3276 438.944 92.3276 439.788 91.9058C440.563 91.5186 441.191 90.8904 441.578 90.1156C442 89.2714 442 88.1701 442 85.9676V18.6876C442 16.4852 442 15.3839 441.578 14.5397C441.191 13.7649 440.563 13.1366 439.788 12.7495C438.944 12.3276 437.842 12.3276 435.64 12.3276H22.36C20.1575 12.3276 19.0563 12.3276 18.2121 12.7495C17.4372 13.1366 16.809 13.7649 16.4218 14.5397Z" fill="white"/>
</g>
<path d="M43.392 33.9056H38.492L37.344 36.3276H36.126V36.1736L40.69 26.4856H41.222L45.744 36.1736V36.3276H44.54L43.392 33.9056ZM40.942 28.3196L38.884 32.8976H43L40.942 28.3196ZM47.2008 37.9936H46.2488L46.2208 35.4596H46.2348H46.4448C46.5941 35.4503 46.7248 35.4223 46.8368 35.3756C46.9581 35.329 47.0608 35.2403 47.1448 35.1096C47.2288 34.979 47.2941 34.8716 47.3408 34.7876C47.3968 34.7036 47.4481 34.545 47.4948 34.3116C47.5414 34.069 47.5741 33.901 47.5928 33.8076C47.6114 33.705 47.6394 33.4996 47.6768 33.1916C47.6861 33.1076 47.6954 33.0423 47.7048 32.9956L48.1948 29.5796H52.6608V35.4596H53.5848L53.5428 37.9936H52.6048V36.3276H47.2008V37.9936ZM51.6248 35.4596V30.5036H49.0908L48.7408 33.2336C48.6661 33.9336 48.5634 34.447 48.4328 34.7736C48.3021 35.1003 48.1061 35.329 47.8448 35.4596H51.6248ZM56.2462 30.6996C56.7782 29.8316 57.5995 29.3976 58.7102 29.3976C59.6622 29.3976 60.4089 29.7336 60.9502 30.4056C61.4915 31.0683 61.7622 31.9036 61.7622 32.9116C61.7622 33.6396 61.5942 34.2836 61.2582 34.8436C60.9222 35.3943 60.4975 35.8003 59.9842 36.0616C59.4709 36.3136 58.8922 36.4163 58.2482 36.3696C57.6042 36.323 56.9882 36.1036 56.4002 35.7116V39.7996H55.3082V31.8336C55.3082 31.2176 55.2849 30.8443 55.2382 30.7136C55.1355 30.443 54.8929 30.331 54.5102 30.3776L54.4962 29.5656C55.0655 29.4723 55.5042 29.5143 55.8122 29.6916C56.1202 29.8596 56.2649 30.1956 56.2462 30.6996ZM56.3722 32.6316V34.7176C56.9789 35.1843 57.6135 35.427 58.2762 35.4456C58.9482 35.4643 59.5082 35.245 59.9562 34.7876C60.4135 34.3303 60.6422 33.705 60.6422 32.9116C60.6422 32.1836 60.4602 31.5816 60.0962 31.1056C59.7415 30.6296 59.2095 30.3916 58.5002 30.3916C57.8842 30.3916 57.3802 30.6156 56.9882 31.0636C56.5962 31.5023 56.3909 32.025 56.3722 32.6316ZM66.4884 29.4256C67.6271 29.435 68.4577 29.7663 68.9804 30.4196C69.5031 31.0636 69.6711 31.9456 69.4844 33.0656H64.1224C64.0851 33.8216 64.3277 34.4283 64.8504 34.8856C65.3731 35.343 66.0264 35.5716 66.8104 35.5716C67.5384 35.5716 68.2991 35.4083 69.0924 35.0816L69.2604 35.9076C68.4484 36.2903 67.6224 36.4816 66.7824 36.4816C65.6437 36.4816 64.7244 36.1456 64.0244 35.4736C63.3244 34.8016 62.9931 33.901 63.0304 32.7716C63.0677 31.7356 63.4131 30.919 64.0664 30.3216C64.7197 29.7243 65.5271 29.4256 66.4884 29.4256ZM66.4884 30.2936C65.8631 30.2936 65.3404 30.4663 64.9204 30.8116C64.5097 31.1476 64.2577 31.619 64.1644 32.2256H68.5604C68.5977 31.6096 68.4204 31.1336 68.0284 30.7976C67.6364 30.4616 67.1231 30.2936 66.4884 30.2936ZM77.4743 31.6376H76.4243C76.247 31.2363 75.9763 30.9283 75.6123 30.7136C75.2483 30.499 74.8423 30.3916 74.3943 30.3916C73.7223 30.3916 73.1343 30.6156 72.6303 31.0636C72.1263 31.5116 71.8743 32.1323 71.8743 32.9256C71.8743 33.7096 72.1217 34.3303 72.6163 34.7876C73.111 35.245 73.685 35.4736 74.3383 35.4736C74.805 35.4736 75.2343 35.3523 75.6263 35.1096C76.0183 34.867 76.303 34.517 76.4803 34.0596H77.5443C77.3483 34.825 76.947 35.413 76.3403 35.8236C75.743 36.2343 75.071 36.4396 74.3243 36.4396C73.3723 36.4396 72.5417 36.1316 71.8323 35.5156C71.123 34.8903 70.7683 34.027 70.7683 32.9256C70.7683 31.815 71.123 30.9516 71.8323 30.3356C72.551 29.7103 73.391 29.4023 74.3523 29.4116C75.071 29.421 75.7197 29.617 76.2983 29.9996C76.877 30.3823 77.269 30.9283 77.4743 31.6376ZM87.7531 31.5116L83.0911 36.3276H82.7691V29.5796H83.8331V31.9736L83.7491 34.3116L88.3411 29.5656H88.7051V36.3276H87.6411V34.0736L87.7531 31.5116ZM97.1465 36.3136H96.0825V30.5456H93.7025V29.5796H99.5265V30.5456H97.1465V36.3136ZM103.758 29.4256C104.897 29.435 105.727 29.7663 106.25 30.4196C106.773 31.0636 106.941 31.9456 106.754 33.0656H101.392C101.355 33.8216 101.597 34.4283 102.12 34.8856C102.643 35.343 103.296 35.5716 104.08 35.5716C104.808 35.5716 105.569 35.4083 106.362 35.0816L106.53 35.9076C105.718 36.2903 104.892 36.4816 104.052 36.4816C102.913 36.4816 101.994 36.1456 101.294 35.4736C100.594 34.8016 100.263 33.901 100.3 32.7716C100.337 31.7356 100.683 30.919 101.336 30.3216C101.989 29.7243 102.797 29.4256 103.758 29.4256ZM103.758 30.2936C103.133 30.2936 102.61 30.4663 102.19 30.8116C101.779 31.1476 101.527 31.619 101.434 32.2256H105.83C105.867 31.6096 105.69 31.1336 105.298 30.7976C104.906 30.4616 104.393 30.2936 103.758 30.2936ZM113.442 30.5596H110.656L110.264 34.1016C110.171 35.0723 109.947 35.721 109.592 36.0476C109.247 36.3743 108.603 36.4676 107.66 36.3276L107.688 35.5016C107.847 35.5296 107.987 35.5436 108.108 35.5436C108.229 35.5436 108.337 35.5296 108.43 35.5016C108.523 35.4736 108.603 35.4456 108.668 35.4176C108.743 35.3803 108.808 35.3243 108.864 35.2496C108.92 35.175 108.962 35.105 108.99 35.0396C109.027 34.965 109.06 34.8716 109.088 34.7596C109.116 34.6383 109.135 34.5263 109.144 34.4236C109.163 34.321 109.181 34.195 109.2 34.0456L109.718 29.5796H114.52V36.3276H113.442V30.5596ZM119.672 29.4256C120.811 29.435 121.641 29.7663 122.164 30.4196C122.687 31.0636 122.855 31.9456 122.668 33.0656H117.306C117.269 33.8216 117.511 34.4283 118.034 34.8856C118.557 35.343 119.21 35.5716 119.994 35.5716C120.722 35.5716 121.483 35.4083 122.276 35.0816L122.444 35.9076C121.632 36.2903 120.806 36.4816 119.966 36.4816C118.827 36.4816 117.908 36.1456 117.208 35.4736C116.508 34.8016 116.177 33.901 116.214 32.7716C116.251 31.7356 116.597 30.919 117.25 30.3216C117.903 29.7243 118.711 29.4256 119.672 29.4256ZM119.672 30.2936C119.047 30.2936 118.524 30.4663 118.104 30.8116C117.693 31.1476 117.441 31.619 117.348 32.2256H121.744C121.781 31.6096 121.604 31.1336 121.212 30.7976C120.82 30.4616 120.307 30.2936 119.672 30.2936ZM129.874 39.7576H128.796V35.6976C128.199 36.0803 127.606 36.2996 127.018 36.3556C126.43 36.4116 125.917 36.3183 125.478 36.0756C125.039 35.833 124.685 35.441 124.414 34.8996C124.143 34.349 124.008 33.6956 124.008 32.9396C124.008 32.1836 124.143 31.5303 124.414 30.9796C124.685 30.429 125.039 30.0323 125.478 29.7896C125.917 29.547 126.43 29.449 127.018 29.4956C127.606 29.5423 128.199 29.757 128.796 30.1396V26.1356H129.874V30.1396C130.471 29.757 131.059 29.5423 131.638 29.4956C132.226 29.449 132.735 29.547 133.164 29.7896C133.603 30.0323 133.957 30.429 134.228 30.9796C134.499 31.5303 134.634 32.1836 134.634 32.9396C134.634 33.6956 134.499 34.349 134.228 34.8996C133.957 35.441 133.603 35.833 133.164 36.0756C132.735 36.3183 132.226 36.4116 131.638 36.3556C131.059 36.2996 130.471 36.0803 129.874 35.6976V39.7576ZM133.542 32.9396C133.542 32.1556 133.36 31.5443 132.996 31.1056C132.632 30.6576 132.165 30.443 131.596 30.4616C131.027 30.471 130.448 30.7043 129.86 31.1616V34.6896C130.299 35.035 130.742 35.2496 131.19 35.3336C131.638 35.4083 132.03 35.371 132.366 35.2216C132.711 35.063 132.991 34.7876 133.206 34.3956C133.43 33.9943 133.542 33.509 133.542 32.9396ZM125.114 32.9396C125.114 33.705 125.296 34.307 125.66 34.7456C126.024 35.1843 126.495 35.399 127.074 35.3896C127.653 35.3803 128.236 35.147 128.824 34.6896V31.1616C128.385 30.8163 127.937 30.6063 127.48 30.5316C127.032 30.4476 126.635 30.485 126.29 30.6436C125.945 30.8023 125.66 31.0823 125.436 31.4836C125.221 31.885 125.114 32.3703 125.114 32.9396ZM143.055 32.9396C143.055 33.4996 142.952 34.0083 142.747 34.4656C142.541 34.923 142.271 35.2916 141.935 35.5716C141.608 35.8516 141.23 36.071 140.801 36.2296C140.381 36.379 139.947 36.4536 139.499 36.4536C139.051 36.4536 138.612 36.379 138.183 36.2296C137.763 36.071 137.385 35.8516 137.049 35.5716C136.722 35.2916 136.456 34.9276 136.251 34.4796C136.045 34.0223 135.943 33.509 135.943 32.9396C135.943 32.3703 136.045 31.857 136.251 31.3996C136.456 30.9423 136.722 30.5736 137.049 30.2936C137.385 30.0136 137.763 29.799 138.183 29.6496C138.612 29.491 139.051 29.4116 139.499 29.4116C139.947 29.4116 140.381 29.491 140.801 29.6496C141.23 29.799 141.608 30.0136 141.935 30.2936C142.271 30.5736 142.541 30.9423 142.747 31.3996C142.952 31.857 143.055 32.3703 143.055 32.9396ZM137.413 31.5116C137.17 31.913 137.049 32.389 137.049 32.9396C137.049 33.4903 137.17 33.9663 137.413 34.3676C137.655 34.769 137.959 35.063 138.323 35.2496C138.687 35.427 139.079 35.5156 139.499 35.5156C139.928 35.5156 140.325 35.427 140.689 35.2496C141.053 35.063 141.356 34.769 141.599 34.3676C141.841 33.9663 141.963 33.4903 141.963 32.9396C141.963 32.389 141.841 31.913 141.599 31.5116C141.356 31.1103 141.053 30.821 140.689 30.6436C140.325 30.4663 139.928 30.3776 139.499 30.3776C139.079 30.3776 138.687 30.4663 138.323 30.6436C137.959 30.821 137.655 31.1103 137.413 31.5116ZM149.644 29.5796H150.708V36.3276H149.644V33.3176H145.822V36.3276H144.744V29.5796H145.822V32.3656H149.644V29.5796ZM156.712 37.9936H155.76L155.732 35.4596H155.746H155.956C156.106 35.4503 156.236 35.4223 156.348 35.3756C156.47 35.329 156.572 35.2403 156.656 35.1096C156.74 34.979 156.806 34.8716 156.852 34.7876C156.908 34.7036 156.96 34.545 157.006 34.3116C157.053 34.069 157.086 33.901 157.104 33.8076C157.123 33.705 157.151 33.4996 157.188 33.1916C157.198 33.1076 157.207 33.0423 157.216 32.9956L157.706 29.5796H162.172V35.4596H163.096L163.054 37.9936H162.116V36.3276H156.712V37.9936ZM161.136 35.4596V30.5036H158.602L158.252 33.2336C158.178 33.9336 158.075 34.447 157.944 34.7736C157.814 35.1003 157.618 35.329 157.356 35.4596H161.136ZM169.606 30.5596H166.82L166.428 34.1016C166.335 35.0723 166.111 35.721 165.756 36.0476C165.411 36.3743 164.767 36.4676 163.824 36.3276L163.852 35.5016C164.011 35.5296 164.151 35.5436 164.272 35.5436C164.393 35.5436 164.501 35.5296 164.594 35.5016C164.687 35.4736 164.767 35.4456 164.832 35.4176C164.907 35.3803 164.972 35.3243 165.028 35.2496C165.084 35.175 165.126 35.105 165.154 35.0396C165.191 34.965 165.224 34.8716 165.252 34.7596C165.28 34.6383 165.299 34.5263 165.308 34.4236C165.327 34.321 165.345 34.195 165.364 34.0456L165.882 29.5796H170.684V36.3276H169.606V30.5596ZM172.21 36.2156L174.142 33.7936C173.666 33.6816 173.269 33.4436 172.952 33.0796C172.644 32.7063 172.49 32.2723 172.49 31.7776C172.49 31.1523 172.709 30.6296 173.148 30.2096C173.587 29.7896 174.147 29.5796 174.828 29.5796H177.922V36.3276H176.816V33.9896H175.234L173.372 36.3276H172.21V36.2156ZM175.108 33.0796H176.816V30.4756H175.108C174.669 30.4756 174.305 30.597 174.016 30.8396C173.736 31.073 173.596 31.3903 173.596 31.7916C173.596 32.1836 173.736 32.4963 174.016 32.7296C174.305 32.963 174.669 33.0796 175.108 33.0796ZM184.774 32.4356H185.67C187.443 32.4356 188.33 31.479 188.33 29.5656H189.366C189.394 31.3016 188.754 32.4216 187.448 32.9256L189.702 36.2016V36.3276H188.526L186.482 33.2616C186.267 33.3083 185.992 33.3316 185.656 33.3316H184.774V36.3276H183.668V29.5656H184.774V32.4356ZM197.701 32.9396C197.701 33.4996 197.598 34.0083 197.393 34.4656C197.188 34.923 196.917 35.2916 196.581 35.5716C196.254 35.8516 195.876 36.071 195.447 36.2296C195.027 36.379 194.593 36.4536 194.145 36.4536C193.697 36.4536 193.258 36.379 192.829 36.2296C192.409 36.071 192.031 35.8516 191.695 35.5716C191.368 35.2916 191.102 34.9276 190.897 34.4796C190.692 34.0223 190.589 33.509 190.589 32.9396C190.589 32.3703 190.692 31.857 190.897 31.3996C191.102 30.9423 191.368 30.5736 191.695 30.2936C192.031 30.0136 192.409 29.799 192.829 29.6496C193.258 29.491 193.697 29.4116 194.145 29.4116C194.593 29.4116 195.027 29.491 195.447 29.6496C195.876 29.799 196.254 30.0136 196.581 30.2936C196.917 30.5736 197.188 30.9423 197.393 31.3996C197.598 31.857 197.701 32.3703 197.701 32.9396ZM192.059 31.5116C191.816 31.913 191.695 32.389 191.695 32.9396C191.695 33.4903 191.816 33.9663 192.059 34.3676C192.302 34.769 192.605 35.063 192.969 35.2496C193.333 35.427 193.725 35.5156 194.145 35.5156C194.574 35.5156 194.971 35.427 195.335 35.2496C195.699 35.063 196.002 34.769 196.245 34.3676C196.488 33.9663 196.609 33.4903 196.609 32.9396C196.609 32.389 196.488 31.913 196.245 31.5116C196.002 31.1103 195.699 30.821 195.335 30.6436C194.971 30.4663 194.574 30.3776 194.145 30.3776C193.725 30.3776 193.333 30.4663 192.969 30.6436C192.605 30.821 192.302 31.1103 192.059 31.5116ZM200.498 30.6996C201.03 29.8316 201.851 29.3976 202.962 29.3976C203.914 29.3976 204.661 29.7336 205.202 30.4056C205.743 31.0683 206.014 31.9036 206.014 32.9116C206.014 33.6396 205.846 34.2836 205.51 34.8436C205.174 35.3943 204.749 35.8003 204.236 36.0616C203.723 36.3136 203.144 36.4163 202.5 36.3696C201.856 36.323 201.24 36.1036 200.652 35.7116V39.7996H199.56V31.8336C199.56 31.2176 199.537 30.8443 199.49 30.7136C199.387 30.443 199.145 30.331 198.762 30.3776L198.748 29.5656C199.317 29.4723 199.756 29.5143 200.064 29.6916C200.372 29.8596 200.517 30.1956 200.498 30.6996ZM200.624 32.6316V34.7176C201.231 35.1843 201.865 35.427 202.528 35.4456C203.2 35.4643 203.76 35.245 204.208 34.7876C204.665 34.3303 204.894 33.705 204.894 32.9116C204.894 32.1836 204.712 31.5816 204.348 31.1056C203.993 30.6296 203.461 30.3916 202.752 30.3916C202.136 30.3916 201.632 30.6156 201.24 31.0636C200.848 31.5023 200.643 32.025 200.624 32.6316ZM208.824 30.6996C209.356 29.8316 210.178 29.3976 211.288 29.3976C212.24 29.3976 212.987 29.7336 213.528 30.4056C214.07 31.0683 214.34 31.9036 214.34 32.9116C214.34 33.6396 214.172 34.2836 213.836 34.8436C213.5 35.3943 213.076 35.8003 212.562 36.0616C212.049 36.3136 211.47 36.4163 210.826 36.3696C210.182 36.323 209.566 36.1036 208.978 35.7116V39.7996H207.886V31.8336C207.886 31.2176 207.863 30.8443 207.816 30.7136C207.714 30.443 207.471 30.331 207.088 30.3776L207.074 29.5656C207.644 29.4723 208.082 29.5143 208.39 29.6916C208.698 29.8596 208.843 30.1956 208.824 30.6996ZM208.95 32.6316V34.7176C209.557 35.1843 210.192 35.427 210.854 35.4456C211.526 35.4643 212.086 35.245 212.534 34.7876C212.992 34.3303 213.22 33.705 213.22 32.9116C213.22 32.1836 213.038 31.5816 212.674 31.1056C212.32 30.6296 211.788 30.3916 211.078 30.3916C210.462 30.3916 209.958 30.6156 209.566 31.0636C209.174 31.5023 208.969 32.025 208.95 32.6316ZM219.067 29.4256C220.205 29.435 221.036 29.7663 221.559 30.4196C222.081 31.0636 222.249 31.9456 222.063 33.0656H216.701C216.663 33.8216 216.906 34.4283 217.429 34.8856C217.951 35.343 218.605 35.5716 219.389 35.5716C220.117 35.5716 220.877 35.4083 221.671 35.0816L221.839 35.9076C221.027 36.2903 220.201 36.4816 219.361 36.4816C218.222 36.4816 217.303 36.1456 216.603 35.4736C215.903 34.8016 215.571 33.901 215.609 32.7716C215.646 31.7356 215.991 30.919 216.645 30.3216C217.298 29.7243 218.105 29.4256 219.067 29.4256ZM219.067 30.2936C218.441 30.2936 217.919 30.4663 217.499 30.8116C217.088 31.1476 216.836 31.619 216.743 32.2256H221.139C221.176 31.6096 220.999 31.1336 220.607 30.7976C220.215 30.4616 219.701 30.2936 219.067 30.2936ZM230.052 31.6376H229.002C228.825 31.2363 228.554 30.9283 228.19 30.7136C227.826 30.499 227.42 30.3916 226.972 30.3916C226.3 30.3916 225.712 30.6156 225.208 31.0636C224.704 31.5116 224.452 32.1323 224.452 32.9256C224.452 33.7096 224.7 34.3303 225.194 34.7876C225.689 35.245 226.263 35.4736 226.916 35.4736C227.383 35.4736 227.812 35.3523 228.204 35.1096C228.596 34.867 228.881 34.517 229.058 34.0596H230.122C229.926 34.825 229.525 35.413 228.918 35.8236C228.321 36.2343 227.649 36.4396 226.902 36.4396C225.95 36.4396 225.12 36.1316 224.41 35.5156C223.701 34.8903 223.346 34.027 223.346 32.9256C223.346 31.815 223.701 30.9516 224.41 30.3356C225.129 29.7103 225.969 29.4023 226.93 29.4116C227.649 29.421 228.298 29.617 228.876 29.9996C229.455 30.3823 229.847 30.9283 230.052 31.6376ZM231.724 29.5796H237.674V36.3276H236.582V30.5596H232.83V36.3276H231.724V29.5796ZM246.482 32.9396C246.482 33.4996 246.38 34.0083 246.174 34.4656C245.969 34.923 245.698 35.2916 245.362 35.5716C245.036 35.8516 244.658 36.071 244.228 36.2296C243.808 36.379 243.374 36.4536 242.926 36.4536C242.478 36.4536 242.04 36.379 241.61 36.2296C241.19 36.071 240.812 35.8516 240.476 35.5716C240.15 35.2916 239.884 34.9276 239.678 34.4796C239.473 34.0223 239.37 33.509 239.37 32.9396C239.37 32.3703 239.473 31.857 239.678 31.3996C239.884 30.9423 240.15 30.5736 240.476 30.2936C240.812 30.0136 241.19 29.799 241.61 29.6496C242.04 29.491 242.478 29.4116 242.926 29.4116C243.374 29.4116 243.808 29.491 244.228 29.6496C244.658 29.799 245.036 30.0136 245.362 30.2936C245.698 30.5736 245.969 30.9423 246.174 31.3996C246.38 31.857 246.482 32.3703 246.482 32.9396ZM240.84 31.5116C240.598 31.913 240.476 32.389 240.476 32.9396C240.476 33.4903 240.598 33.9663 240.84 34.3676C241.083 34.769 241.386 35.063 241.75 35.2496C242.114 35.427 242.506 35.5156 242.926 35.5156C243.356 35.5156 243.752 35.427 244.116 35.2496C244.48 35.063 244.784 34.769 245.026 34.3676C245.269 33.9663 245.39 33.4903 245.39 32.9396C245.39 32.389 245.269 31.913 245.026 31.5116C244.784 31.1103 244.48 30.821 244.116 30.6436C243.752 30.4663 243.356 30.3776 242.926 30.3776C242.506 30.3776 242.114 30.4663 241.75 30.6436C241.386 30.821 241.083 31.1103 240.84 31.5116ZM253.071 29.5796H254.135V36.3276H253.071V33.3176H249.249V36.3276H248.171V29.5796H249.249V32.3656H253.071V29.5796ZM256.517 37.9936H255.565L255.537 35.4596H255.551H255.761C255.911 35.4503 256.041 35.4223 256.153 35.3756C256.275 35.329 256.377 35.2403 256.461 35.1096C256.545 34.979 256.611 34.8716 256.657 34.7876C256.713 34.7036 256.765 34.545 256.811 34.3116C256.858 34.069 256.891 33.901 256.909 33.8076C256.928 33.705 256.956 33.4996 256.993 33.1916C257.003 33.1076 257.012 33.0423 257.021 32.9956L257.511 29.5796H261.977V35.4596H262.901L262.859 37.9936H261.921V36.3276H256.517V37.9936ZM260.941 35.4596V30.5036H258.407L258.057 33.2336C257.983 33.9336 257.88 34.447 257.749 34.7736C257.619 35.1003 257.423 35.329 257.161 35.4596H260.941ZM267.383 29.4256C268.522 29.435 269.352 29.7663 269.875 30.4196C270.398 31.0636 270.566 31.9456 270.379 33.0656H265.017C264.98 33.8216 265.222 34.4283 265.745 34.8856C266.268 35.343 266.921 35.5716 267.705 35.5716C268.433 35.5716 269.194 35.4083 269.987 35.0816L270.155 35.9076C269.343 36.2903 268.517 36.4816 267.677 36.4816C266.538 36.4816 265.619 36.1456 264.919 35.4736C264.219 34.8016 263.888 33.901 263.925 32.7716C263.962 31.7356 264.308 30.919 264.961 30.3216C265.614 29.7243 266.422 29.4256 267.383 29.4256ZM267.383 30.2936C266.758 30.2936 266.235 30.4663 265.815 30.8116C265.404 31.1476 265.152 31.619 265.059 32.2256H269.455C269.492 31.6096 269.315 31.1336 268.923 30.7976C268.531 30.4616 268.018 30.2936 267.383 30.2936ZM277.011 29.5796H278.075V36.3276H277.011V33.3176H273.189V36.3276H272.111V29.5796H273.189V32.3656H277.011V29.5796ZM285.623 36.3276H280.205V29.5796H281.269V35.3476H284.657V29.5796H285.707V35.4456H286.603L286.547 37.9656H285.623V36.3276ZM293.146 31.5116L288.484 36.3276H288.162V29.5796H289.226V31.9736L289.142 34.3116L293.734 29.5656H294.098V36.3276H293.034V34.0736L293.146 31.5116ZM301.212 31.5116L296.55 36.3276H296.228V29.5796H297.292V31.9736L297.208 34.3116L301.8 29.5656H302.164V36.3276H301.1V34.0736L301.212 31.5116ZM305.568 35.9076C305.559 36.001 305.531 36.113 305.484 36.2436L305.064 37.5736H304.378L304.686 36.4816C304.36 36.3696 304.196 36.1596 304.196 35.8516C304.196 35.6556 304.262 35.5016 304.392 35.3896C304.523 35.2683 304.686 35.2076 304.882 35.2076C305.228 35.2076 305.452 35.3663 305.554 35.6836C305.573 35.805 305.578 35.8796 305.568 35.9076ZM316.21 31.5116L311.548 36.3276H311.226V29.5796H312.29V31.9736L312.206 34.3116L316.798 29.5656H317.162V36.3276H316.098V34.0736L316.21 31.5116ZM324.193 29.5796H325.257V36.3276H324.193V33.3176H320.371V36.3276H319.293V29.5796H320.371V32.3656H324.193V29.5796ZM332.692 31.3296C332.692 31.6563 332.608 31.9503 332.44 32.2116C332.272 32.4636 332.02 32.6363 331.684 32.7296C332.114 32.8323 332.454 33.0376 332.706 33.3456C332.958 33.6536 333.084 34.0223 333.084 34.4516C333.084 34.7783 333.024 35.063 332.902 35.3056C332.781 35.539 332.627 35.721 332.44 35.8516C332.263 35.9823 332.034 36.0896 331.754 36.1736C331.474 36.2483 331.213 36.295 330.97 36.3136C330.737 36.3323 330.466 36.3416 330.158 36.3416H327.386V29.5656H329.85C330.14 29.5656 330.396 29.575 330.62 29.5936C330.844 29.6123 331.092 29.659 331.362 29.7336C331.642 29.799 331.871 29.8923 332.048 30.0136C332.226 30.1256 332.375 30.2983 332.496 30.5316C332.627 30.7556 332.692 31.0216 332.692 31.3296ZM328.45 35.4316H330.06C330.247 35.4316 330.373 35.4316 330.438 35.4316C330.504 35.4316 330.625 35.427 330.802 35.4176C330.98 35.399 331.106 35.3803 331.18 35.3616C331.264 35.3336 331.367 35.2963 331.488 35.2496C331.619 35.1936 331.712 35.1283 331.768 35.0536C331.834 34.979 331.89 34.8856 331.936 34.7736C331.983 34.6523 332.006 34.517 332.006 34.3676C332.006 34.1156 331.941 33.9103 331.81 33.7516C331.689 33.5836 331.512 33.467 331.278 33.4016C331.054 33.327 330.84 33.2803 330.634 33.2616C330.438 33.2336 330.21 33.2196 329.948 33.2196H328.45V35.4316ZM328.45 32.3796H329.906C330.149 32.3796 330.345 32.375 330.494 32.3656C330.653 32.347 330.83 32.3096 331.026 32.2536C331.222 32.1883 331.367 32.0856 331.46 31.9456C331.563 31.8056 331.614 31.6283 331.614 31.4136C331.614 31.199 331.563 31.0216 331.46 30.8816C331.358 30.7323 331.213 30.6296 331.026 30.5736C330.84 30.5083 330.662 30.4663 330.494 30.4476C330.336 30.429 330.14 30.4196 329.906 30.4196H328.45V32.3796ZM337.793 29.4256C338.932 29.435 339.762 29.7663 340.285 30.4196C340.808 31.0636 340.976 31.9456 340.789 33.0656H335.427C335.39 33.8216 335.632 34.4283 336.155 34.8856C336.678 35.343 337.331 35.5716 338.115 35.5716C338.843 35.5716 339.604 35.4083 340.397 35.0816L340.565 35.9076C339.753 36.2903 338.927 36.4816 338.087 36.4816C336.948 36.4816 336.029 36.1456 335.329 35.4736C334.629 34.8016 334.298 33.901 334.335 32.7716C334.372 31.7356 334.718 30.919 335.371 30.3216C336.024 29.7243 336.832 29.4256 337.793 29.4256ZM337.793 30.2936C337.168 30.2936 336.645 30.4663 336.225 30.8116C335.814 31.1476 335.562 31.619 335.469 32.2256H339.865C339.902 31.6096 339.725 31.1336 339.333 30.7976C338.941 30.4616 338.428 30.2936 337.793 30.2936ZM348.779 31.6376H347.729C347.552 31.2363 347.281 30.9283 346.917 30.7136C346.553 30.499 346.147 30.3916 345.699 30.3916C345.027 30.3916 344.439 30.6156 343.935 31.0636C343.431 31.5116 343.179 32.1323 343.179 32.9256C343.179 33.7096 343.426 34.3303 343.921 34.7876C344.416 35.245 344.99 35.4736 345.643 35.4736C346.11 35.4736 346.539 35.3523 346.931 35.1096C347.323 34.867 347.608 34.517 347.785 34.0596H348.849C348.653 34.825 348.252 35.413 347.645 35.8236C347.048 36.2343 346.376 36.4396 345.629 36.4396C344.677 36.4396 343.846 36.1316 343.137 35.5156C342.428 34.8903 342.073 34.027 342.073 32.9256C342.073 31.815 342.428 30.9516 343.137 30.3356C343.856 29.7103 344.696 29.4023 345.657 29.4116C346.376 29.421 347.024 29.617 347.603 29.9996C348.182 30.3823 348.574 30.9283 348.779 31.6376ZM353.139 36.3136H352.075V30.5456H349.695V29.5796H355.519V30.5456H353.139V36.3136ZM363.404 32.9396C363.404 33.4996 363.301 34.0083 363.096 34.4656C362.891 34.923 362.62 35.2916 362.284 35.5716C361.957 35.8516 361.579 36.071 361.15 36.2296C360.73 36.379 360.296 36.4536 359.848 36.4536C359.4 36.4536 358.961 36.379 358.532 36.2296C358.112 36.071 357.734 35.8516 357.398 35.5716C357.071 35.2916 356.805 34.9276 356.6 34.4796C356.395 34.0223 356.292 33.509 356.292 32.9396C356.292 32.3703 356.395 31.857 356.6 31.3996C356.805 30.9423 357.071 30.5736 357.398 30.2936C357.734 30.0136 358.112 29.799 358.532 29.6496C358.961 29.491 359.4 29.4116 359.848 29.4116C360.296 29.4116 360.73 29.491 361.15 29.6496C361.579 29.799 361.957 30.0136 362.284 30.2936C362.62 30.5736 362.891 30.9423 363.096 31.3996C363.301 31.857 363.404 32.3703 363.404 32.9396ZM357.762 31.5116C357.519 31.913 357.398 32.389 357.398 32.9396C357.398 33.4903 357.519 33.9663 357.762 34.3676C358.005 34.769 358.308 35.063 358.672 35.2496C359.036 35.427 359.428 35.5156 359.848 35.5156C360.277 35.5156 360.674 35.427 361.038 35.2496C361.402 35.063 361.705 34.769 361.948 34.3676C362.191 33.9663 362.312 33.4903 362.312 32.9396C362.312 32.389 362.191 31.913 361.948 31.5116C361.705 31.1103 361.402 30.821 361.038 30.6436C360.674 30.4663 360.277 30.3776 359.848 30.3776C359.428 30.3776 359.036 30.4663 358.672 30.6436C358.308 30.821 358.005 31.1103 357.762 31.5116ZM366.201 30.6996C366.733 29.8316 367.555 29.3976 368.665 29.3976C369.617 29.3976 370.364 29.7336 370.905 30.4056C371.447 31.0683 371.717 31.9036 371.717 32.9116C371.717 33.6396 371.549 34.2836 371.213 34.8436C370.877 35.3943 370.453 35.8003 369.939 36.0616C369.426 36.3136 368.847 36.4163 368.203 36.3696C367.559 36.323 366.943 36.1036 366.355 35.7116V39.7996H365.263V31.8336C365.263 31.2176 365.24 30.8443 365.193 30.7136C365.091 30.443 364.848 30.331 364.465 30.3776L364.451 29.5656C365.021 29.4723 365.459 29.5143 365.767 29.6916C366.075 29.8596 366.22 30.1956 366.201 30.6996ZM366.327 32.6316V34.7176C366.934 35.1843 367.569 35.427 368.231 35.4456C368.903 35.4643 369.463 35.245 369.911 34.7876C370.369 34.3303 370.597 33.705 370.597 32.9116C370.597 32.1836 370.415 31.5816 370.051 31.1056C369.697 30.6296 369.165 30.3916 368.455 30.3916C367.839 30.3916 367.335 30.6156 366.943 31.0636C366.551 31.5023 366.346 32.025 366.327 32.6316ZM380.097 32.9396C380.097 33.4996 379.995 34.0083 379.789 34.4656C379.584 34.923 379.313 35.2916 378.977 35.5716C378.651 35.8516 378.273 36.071 377.843 36.2296C377.423 36.379 376.989 36.4536 376.541 36.4536C376.093 36.4536 375.655 36.379 375.225 36.2296C374.805 36.071 374.427 35.8516 374.091 35.5716C373.765 35.2916 373.499 34.9276 373.293 34.4796C373.088 34.0223 372.985 33.509 372.985 32.9396C372.985 32.3703 373.088 31.857 373.293 31.3996C373.499 30.9423 373.765 30.5736 374.091 30.2936C374.427 30.0136 374.805 29.799 375.225 29.6496C375.655 29.491 376.093 29.4116 376.541 29.4116C376.989 29.4116 377.423 29.491 377.843 29.6496C378.273 29.799 378.651 30.0136 378.977 30.2936C379.313 30.5736 379.584 30.9423 379.789 31.3996C379.995 31.857 380.097 32.3703 380.097 32.9396ZM374.455 31.5116C374.213 31.913 374.091 32.389 374.091 32.9396C374.091 33.4903 374.213 33.9663 374.455 34.3676C374.698 34.769 375.001 35.063 375.365 35.2496C375.729 35.427 376.121 35.5156 376.541 35.5156C376.971 35.5156 377.367 35.427 377.731 35.2496C378.095 35.063 378.399 34.769 378.641 34.3676C378.884 33.9663 379.005 33.4903 379.005 32.9396C379.005 32.389 378.884 31.913 378.641 31.5116C378.399 31.1103 378.095 30.821 377.731 30.6436C377.367 30.4663 376.971 30.3776 376.541 30.3776C376.121 30.3776 375.729 30.4663 375.365 30.6436C375.001 30.821 374.698 31.1103 374.455 31.5116ZM387.093 31.3296C387.093 31.6563 387.009 31.9503 386.841 32.2116C386.673 32.4636 386.421 32.6363 386.085 32.7296C386.514 32.8323 386.855 33.0376 387.107 33.3456C387.359 33.6536 387.485 34.0223 387.485 34.4516C387.485 34.7783 387.424 35.063 387.303 35.3056C387.181 35.539 387.027 35.721 386.841 35.8516C386.663 35.9823 386.435 36.0896 386.155 36.1736C385.875 36.2483 385.613 36.295 385.371 36.3136C385.137 36.3323 384.867 36.3416 384.559 36.3416H381.787V29.5656H384.251C384.54 29.5656 384.797 29.575 385.021 29.5936C385.245 29.6123 385.492 29.659 385.763 29.7336C386.043 29.799 386.271 29.8923 386.449 30.0136C386.626 30.1256 386.775 30.2983 386.897 30.5316C387.027 30.7556 387.093 31.0216 387.093 31.3296ZM382.851 35.4316H384.461C384.647 35.4316 384.773 35.4316 384.839 35.4316C384.904 35.4316 385.025 35.427 385.203 35.4176C385.38 35.399 385.506 35.3803 385.581 35.3616C385.665 35.3336 385.767 35.2963 385.889 35.2496C386.019 35.1936 386.113 35.1283 386.169 35.0536C386.234 34.979 386.29 34.8856 386.337 34.7736C386.383 34.6523 386.407 34.517 386.407 34.3676C386.407 34.1156 386.341 33.9103 386.211 33.7516C386.089 33.5836 385.912 33.467 385.679 33.4016C385.455 33.327 385.24 33.2803 385.035 33.2616C384.839 33.2336 384.61 33.2196 384.349 33.2196H382.851V35.4316ZM382.851 32.3796H384.307C384.549 32.3796 384.745 32.375 384.895 32.3656C385.053 32.347 385.231 32.3096 385.427 32.2536C385.623 32.1883 385.767 32.0856 385.861 31.9456C385.963 31.8056 386.015 31.6283 386.015 31.4136C386.015 31.199 385.963 31.0216 385.861 30.8816C385.758 30.7323 385.613 30.6296 385.427 30.5736C385.24 30.5083 385.063 30.4663 384.895 30.4476C384.736 30.429 384.54 30.4196 384.307 30.4196H382.851V32.3796ZM389.771 36.4536C389.575 36.4536 389.407 36.393 389.267 36.2716C389.127 36.141 389.057 35.9823 389.057 35.7956C389.057 35.5903 389.123 35.427 389.253 35.3056C389.393 35.1843 389.566 35.1236 389.771 35.1236C389.986 35.1236 390.159 35.1843 390.289 35.3056C390.429 35.4176 390.499 35.581 390.499 35.7956C390.499 35.9823 390.429 36.141 390.289 36.2716C390.149 36.393 389.977 36.4536 389.771 36.4536ZM44.204 49.1456C44.204 49.6123 44.092 50.0276 43.868 50.3916C43.644 50.7556 43.3173 51.0216 42.888 51.1896C43.448 51.3483 43.882 51.633 44.19 52.0436C44.498 52.4543 44.652 52.949 44.652 53.5276C44.652 54.3956 44.3673 55.0723 43.798 55.5576C43.2287 56.043 42.4773 56.2856 41.544 56.2856H37.302V46.4856H41.124C42.0573 46.4856 42.804 46.705 43.364 47.1436C43.924 47.5823 44.204 48.2496 44.204 49.1456ZM41.054 47.5216H38.478V50.7836H40.886C42.3233 50.7836 43.042 50.2516 43.042 49.1876C43.0513 48.6276 42.874 48.2123 42.51 47.9416C42.146 47.6616 41.6607 47.5216 41.054 47.5216ZM43.476 53.5276C43.5227 52.3703 42.6593 51.7916 40.886 51.7916H38.478V55.2496H41.306C41.9593 55.2496 42.482 55.105 42.874 54.8156C43.266 54.5263 43.4667 54.097 43.476 53.5276ZM53.1072 52.9396C53.1072 53.4996 53.0046 54.0083 52.7992 54.4656C52.5939 54.923 52.3232 55.2916 51.9872 55.5716C51.6606 55.8516 51.2826 56.071 50.8532 56.2296C50.4332 56.379 49.9992 56.4536 49.5512 56.4536C49.1032 56.4536 48.6646 56.379 48.2352 56.2296C47.8152 56.071 47.4372 55.8516 47.1012 55.5716C46.7746 55.2916 46.5086 54.9276 46.3032 54.4796C46.0979 54.0223 45.9952 53.509 45.9952 52.9396C45.9952 52.3703 46.0979 51.857 46.3032 51.3996C46.5086 50.9423 46.7746 50.5736 47.1012 50.2936C47.4372 50.0136 47.8152 49.799 48.2352 49.6496C48.6646 49.491 49.1032 49.4116 49.5512 49.4116C49.9992 49.4116 50.4332 49.491 50.8532 49.6496C51.2826 49.799 51.6606 50.0136 51.9872 50.2936C52.3232 50.5736 52.5939 50.9423 52.7992 51.3996C53.0046 51.857 53.1072 52.3703 53.1072 52.9396ZM47.4652 51.5116C47.2226 51.913 47.1012 52.389 47.1012 52.9396C47.1012 53.4903 47.2226 53.9663 47.4652 54.3676C47.7079 54.769 48.0112 55.063 48.3752 55.2496C48.7392 55.427 49.1312 55.5156 49.5512 55.5156C49.9806 55.5156 50.3772 55.427 50.7412 55.2496C51.1052 55.063 51.4086 54.769 51.6512 54.3676C51.8939 53.9663 52.0152 53.4903 52.0152 52.9396C52.0152 52.389 51.8939 51.913 51.6512 51.5116C51.4086 51.1103 51.1052 50.821 50.7412 50.6436C50.3772 50.4663 49.9806 50.3776 49.5512 50.3776C49.1312 50.3776 48.7392 50.4663 48.3752 50.6436C48.0112 50.821 47.7079 51.1103 47.4652 51.5116ZM54.7964 49.5796H60.7464V56.3276H59.6544V50.5596H55.9024V56.3276H54.7964V49.5796ZM64.0665 50.6996C64.5985 49.8316 65.4198 49.3976 66.5305 49.3976C67.4825 49.3976 68.2292 49.7336 68.7705 50.4056C69.3118 51.0683 69.5825 51.9036 69.5825 52.9116C69.5825 53.6396 69.4145 54.2836 69.0785 54.8436C68.7425 55.3943 68.3178 55.8003 67.8045 56.0616C67.2912 56.3136 66.7125 56.4163 66.0685 56.3696C65.4245 56.323 64.8085 56.1036 64.2205 55.7116V59.7996H63.1285V51.8336C63.1285 51.2176 63.1052 50.8443 63.0585 50.7136C62.9558 50.443 62.7132 50.331 62.3305 50.3776L62.3165 49.5656C62.8858 49.4723 63.3245 49.5143 63.6325 49.6916C63.9405 49.8596 64.0852 50.1956 64.0665 50.6996ZM64.1925 52.6316V54.7176C64.7992 55.1843 65.4338 55.427 66.0965 55.4456C66.7685 55.4643 67.3285 55.245 67.7765 54.7876C68.2338 54.3303 68.4625 53.705 68.4625 52.9116C68.4625 52.1836 68.2805 51.5816 67.9165 51.1056C67.5618 50.6296 67.0298 50.3916 66.3205 50.3916C65.7045 50.3916 65.2005 50.6156 64.8085 51.0636C64.4165 51.5023 64.2112 52.025 64.1925 52.6316ZM77.9627 52.9396C77.9627 53.4996 77.86 54.0083 77.6547 54.4656C77.4494 54.923 77.1787 55.2916 76.8427 55.5716C76.516 55.8516 76.138 56.071 75.7087 56.2296C75.2887 56.379 74.8547 56.4536 74.4067 56.4536C73.9587 56.4536 73.52 56.379 73.0907 56.2296C72.6707 56.071 72.2927 55.8516 71.9567 55.5716C71.63 55.2916 71.364 54.9276 71.1587 54.4796C70.9534 54.0223 70.8507 53.509 70.8507 52.9396C70.8507 52.3703 70.9534 51.857 71.1587 51.3996C71.364 50.9423 71.63 50.5736 71.9567 50.2936C72.2927 50.0136 72.6707 49.799 73.0907 49.6496C73.52 49.491 73.9587 49.4116 74.4067 49.4116C74.8547 49.4116 75.2887 49.491 75.7087 49.6496C76.138 49.799 76.516 50.0136 76.8427 50.2936C77.1787 50.5736 77.4494 50.9423 77.6547 51.3996C77.86 51.857 77.9627 52.3703 77.9627 52.9396ZM72.3207 51.5116C72.078 51.913 71.9567 52.389 71.9567 52.9396C71.9567 53.4903 72.078 53.9663 72.3207 54.3676C72.5634 54.769 72.8667 55.063 73.2307 55.2496C73.5947 55.427 73.9867 55.5156 74.4067 55.5156C74.836 55.5156 75.2327 55.427 75.5967 55.2496C75.9607 55.063 76.264 54.769 76.5067 54.3676C76.7494 53.9663 76.8707 53.4903 76.8707 52.9396C76.8707 52.389 76.7494 51.913 76.5067 51.5116C76.264 51.1103 75.9607 50.821 75.5967 50.6436C75.2327 50.4663 74.836 50.3776 74.4067 50.3776C73.9867 50.3776 73.5947 50.4663 73.2307 50.6436C72.8667 50.821 72.5634 51.1103 72.3207 51.5116ZM85.9099 51.6376H84.8599C84.6826 51.2363 84.4119 50.9283 84.0479 50.7136C83.6839 50.499 83.2779 50.3916 82.8299 50.3916C82.1579 50.3916 81.5699 50.6156 81.0659 51.0636C80.5619 51.5116 80.3099 52.1323 80.3099 52.9256C80.3099 53.7096 80.5572 54.3303 81.0519 54.7876C81.5466 55.245 82.1206 55.4736 82.7739 55.4736C83.2406 55.4736 83.6699 55.3523 84.0619 55.1096C84.4539 54.867 84.7386 54.517 84.9159 54.0596H85.9799C85.7839 54.825 85.3826 55.413 84.7759 55.8236C84.1786 56.2343 83.5066 56.4396 82.7599 56.4396C81.8079 56.4396 80.9772 56.1316 80.2679 55.5156C79.5586 54.8903 79.2039 54.027 79.2039 52.9256C79.2039 51.815 79.5586 50.9516 80.2679 50.3356C80.9866 49.7103 81.8266 49.4023 82.7879 49.4116C83.5066 49.421 84.1552 49.617 84.7339 49.9996C85.3126 50.3823 85.7046 50.9283 85.9099 51.6376ZM90.2136 56.3276H87.5816V49.5796H88.6456V51.7916H90.2136C90.7456 51.7916 91.2216 51.857 91.6416 51.9876C92.0616 52.1183 92.4162 52.361 92.7056 52.7156C93.0042 53.061 93.1536 53.5043 93.1536 54.0456C93.1536 54.839 92.8689 55.4176 92.2996 55.7816C91.7396 56.1456 91.0442 56.3276 90.2136 56.3276ZM90.1996 52.6456H88.6456V55.4736H90.1996C90.7316 55.4736 91.1796 55.357 91.5436 55.1236C91.9076 54.8903 92.0896 54.531 92.0896 54.0456C92.0896 53.5696 91.9029 53.2196 91.5296 52.9956C91.1656 52.7623 90.7222 52.6456 90.1996 52.6456ZM94.4976 56.3276V49.5796H95.5336V56.3276H94.4976ZM107.959 52.9396C107.959 53.4996 107.856 54.0083 107.651 54.4656C107.445 54.923 107.175 55.2916 106.839 55.5716C106.512 55.8516 106.134 56.071 105.705 56.2296C105.285 56.379 104.851 56.4536 104.403 56.4536C103.955 56.4536 103.516 56.379 103.087 56.2296C102.667 56.071 102.289 55.8516 101.953 55.5716C101.626 55.2916 101.36 54.9276 101.155 54.4796C100.949 54.0223 100.847 53.509 100.847 52.9396C100.847 52.3703 100.949 51.857 101.155 51.3996C101.36 50.9423 101.626 50.5736 101.953 50.2936C102.289 50.0136 102.667 49.799 103.087 49.6496C103.516 49.491 103.955 49.4116 104.403 49.4116C104.851 49.4116 105.285 49.491 105.705 49.6496C106.134 49.799 106.512 50.0136 106.839 50.2936C107.175 50.5736 107.445 50.9423 107.651 51.3996C107.856 51.857 107.959 52.3703 107.959 52.9396ZM102.317 51.5116C102.074 51.913 101.953 52.389 101.953 52.9396C101.953 53.4903 102.074 53.9663 102.317 54.3676C102.559 54.769 102.863 55.063 103.227 55.2496C103.591 55.427 103.983 55.5156 104.403 55.5156C104.832 55.5156 105.229 55.427 105.593 55.2496C105.957 55.063 106.26 54.769 106.503 54.3676C106.745 53.9663 106.867 53.4903 106.867 52.9396C106.867 52.389 106.745 51.913 106.503 51.5116C106.26 51.1103 105.957 50.821 105.593 50.6436C105.229 50.4663 104.832 50.3776 104.403 50.3776C103.983 50.3776 103.591 50.4663 103.227 50.6436C102.863 50.821 102.559 51.1103 102.317 51.5116ZM113.523 57.9936H112.571L112.543 55.4596H112.557H112.767C112.916 55.4503 113.047 55.4223 113.159 55.3756C113.28 55.329 113.383 55.2403 113.467 55.1096C113.551 54.979 113.616 54.8716 113.663 54.7876C113.719 54.7036 113.77 54.545 113.817 54.3116C113.864 54.069 113.896 53.901 113.915 53.8076C113.934 53.705 113.962 53.4996 113.999 53.1916C114.008 53.1076 114.018 53.0423 114.027 52.9956L114.517 49.5796H118.983V55.4596H119.907L119.865 57.9936H118.927V56.3276H113.523V57.9936ZM117.947 55.4596V50.5036H115.413L115.063 53.2336C114.988 53.9336 114.886 54.447 114.755 54.7736C114.624 55.1003 114.428 55.329 114.167 55.4596H117.947ZM128.043 52.9396C128.043 53.4996 127.94 54.0083 127.735 54.4656C127.529 54.923 127.259 55.2916 126.923 55.5716C126.596 55.8516 126.218 56.071 125.789 56.2296C125.369 56.379 124.935 56.4536 124.487 56.4536C124.039 56.4536 123.6 56.379 123.171 56.2296C122.751 56.071 122.373 55.8516 122.037 55.5716C121.71 55.2916 121.444 54.9276 121.239 54.4796C121.033 54.0223 120.931 53.509 120.931 52.9396C120.931 52.3703 121.033 51.857 121.239 51.3996C121.444 50.9423 121.71 50.5736 122.037 50.2936C122.373 50.0136 122.751 49.799 123.171 49.6496C123.6 49.491 124.039 49.4116 124.487 49.4116C124.935 49.4116 125.369 49.491 125.789 49.6496C126.218 49.799 126.596 50.0136 126.923 50.2936C127.259 50.5736 127.529 50.9423 127.735 51.3996C127.94 51.857 128.043 52.3703 128.043 52.9396ZM122.401 51.5116C122.158 51.913 122.037 52.389 122.037 52.9396C122.037 53.4903 122.158 53.9663 122.401 54.3676C122.643 54.769 122.947 55.063 123.311 55.2496C123.675 55.427 124.067 55.5156 124.487 55.5156C124.916 55.5156 125.313 55.427 125.677 55.2496C126.041 55.063 126.344 54.769 126.587 54.3676C126.829 53.9663 126.951 53.4903 126.951 52.9396C126.951 52.389 126.829 51.913 126.587 51.5116C126.344 51.1103 126.041 50.821 125.677 50.6436C125.313 50.4663 124.916 50.3776 124.487 50.3776C124.067 50.3776 123.675 50.4663 123.311 50.6436C122.947 50.821 122.643 51.1103 122.401 51.5116ZM135.99 51.6376H134.94C134.763 51.2363 134.492 50.9283 134.128 50.7136C133.764 50.499 133.358 50.3916 132.91 50.3916C132.238 50.3916 131.65 50.6156 131.146 51.0636C130.642 51.5116 130.39 52.1323 130.39 52.9256C130.39 53.7096 130.637 54.3303 131.132 54.7876C131.627 55.245 132.201 55.4736 132.854 55.4736C133.321 55.4736 133.75 55.3523 134.142 55.1096C134.534 54.867 134.819 54.517 134.996 54.0596H136.06C135.864 54.825 135.463 55.413 134.856 55.8236C134.259 56.2343 133.587 56.4396 132.84 56.4396C131.888 56.4396 131.057 56.1316 130.348 55.5156C129.639 54.8903 129.284 54.027 129.284 52.9256C129.284 51.815 129.639 50.9516 130.348 50.3356C131.067 49.7103 131.907 49.4023 132.868 49.4116C133.587 49.421 134.235 49.617 134.814 49.9996C135.393 50.3823 135.785 50.9283 135.99 51.6376ZM140.35 56.3136H139.286V50.5456H136.906V49.5796H142.73V50.5456H140.35V56.3136ZM148.569 55.1096C148.335 55.5483 147.971 55.8796 147.477 56.1036C146.991 56.3276 146.469 56.4396 145.909 56.4396C145.246 56.4396 144.681 56.2576 144.215 55.8936C143.748 55.5203 143.505 55.007 143.487 54.3536C143.468 53.6163 143.711 53.0423 144.215 52.6316C144.728 52.221 145.358 52.0156 146.105 52.0156C146.991 52.0156 147.766 52.2023 148.429 52.5756V51.7496C148.429 51.395 148.307 51.1056 148.065 50.8816C147.831 50.6483 147.565 50.4943 147.267 50.4196C146.968 50.345 146.646 50.3076 146.301 50.3076C145.461 50.3076 144.761 50.471 144.201 50.7976L144.019 49.9576C144.709 49.603 145.526 49.4256 146.469 49.4256C147.327 49.4256 148.037 49.6123 148.597 49.9856C149.166 50.359 149.441 50.9563 149.423 51.7776V54.5916C149.423 54.6103 149.423 54.643 149.423 54.6896C149.423 54.7923 149.423 54.867 149.423 54.9136C149.423 54.9603 149.423 55.0256 149.423 55.1096C149.432 55.1843 149.441 55.2356 149.451 55.2636C149.46 55.2916 149.474 55.3383 149.493 55.4036C149.511 55.469 149.53 55.511 149.549 55.5296C149.577 55.539 149.609 55.567 149.647 55.6136C149.693 55.651 149.74 55.665 149.787 55.6556C149.843 55.6463 149.903 55.6556 149.969 55.6836C150.043 55.7023 150.123 55.693 150.207 55.6556L150.221 56.3696C149.633 56.463 149.208 56.4256 148.947 56.2576C148.695 56.0803 148.569 55.6976 148.569 55.1096ZM148.415 54.0456V53.4016C147.771 53.0376 147.061 52.8556 146.287 52.8556C145.801 52.8556 145.386 52.9863 145.041 53.2476C144.705 53.4996 144.546 53.8543 144.565 54.3116C144.583 54.713 144.737 55.0116 145.027 55.2076C145.325 55.4036 145.685 55.5016 146.105 55.5016C146.609 55.5016 147.094 55.3756 147.561 55.1236C148.027 54.8716 148.312 54.5123 148.415 54.0456ZM156.954 51.3296C156.954 51.6563 156.87 51.9503 156.702 52.2116C156.534 52.4636 156.282 52.6363 155.946 52.7296C156.375 52.8323 156.716 53.0376 156.968 53.3456C157.22 53.6536 157.346 54.0223 157.346 54.4516C157.346 54.7783 157.285 55.063 157.164 55.3056C157.043 55.539 156.889 55.721 156.702 55.8516C156.525 55.9823 156.296 56.0896 156.016 56.1736C155.736 56.2483 155.475 56.295 155.232 56.3136C154.999 56.3323 154.728 56.3416 154.42 56.3416H151.648V49.5656H154.112C154.401 49.5656 154.658 49.575 154.882 49.5936C155.106 49.6123 155.353 49.659 155.624 49.7336C155.904 49.799 156.133 49.8923 156.31 50.0136C156.487 50.1256 156.637 50.2983 156.758 50.5316C156.889 50.7556 156.954 51.0216 156.954 51.3296ZM152.712 55.4316H154.322C154.509 55.4316 154.635 55.4316 154.7 55.4316C154.765 55.4316 154.887 55.427 155.064 55.4176C155.241 55.399 155.367 55.3803 155.442 55.3616C155.526 55.3336 155.629 55.2963 155.75 55.2496C155.881 55.1936 155.974 55.1283 156.03 55.0536C156.095 54.979 156.151 54.8856 156.198 54.7736C156.245 54.6523 156.268 54.517 156.268 54.3676C156.268 54.1156 156.203 53.9103 156.072 53.7516C155.951 53.5836 155.773 53.467 155.54 53.4016C155.316 53.327 155.101 53.2803 154.896 53.2616C154.7 53.2336 154.471 53.2196 154.21 53.2196H152.712V55.4316ZM152.712 52.3796H154.168C154.411 52.3796 154.607 52.375 154.756 52.3656C154.915 52.347 155.092 52.3096 155.288 52.2536C155.484 52.1883 155.629 52.0856 155.722 51.9456C155.825 51.8056 155.876 51.6283 155.876 51.4136C155.876 51.199 155.825 51.0216 155.722 50.8816C155.619 50.7323 155.475 50.6296 155.288 50.5736C155.101 50.5083 154.924 50.4663 154.756 50.4476C154.597 50.429 154.401 50.4196 154.168 50.4196H152.712V52.3796ZM160.137 52.4356H161.033C162.806 52.4356 163.693 51.479 163.693 49.5656H164.729C164.757 51.3016 164.117 52.4216 162.811 52.9256L165.065 56.2016V56.3276H163.889L161.845 53.2616C161.63 53.3083 161.355 53.3316 161.019 53.3316H160.137V56.3276H159.031V49.5656H160.137V52.4356ZM169.41 49.4256C170.549 49.435 171.38 49.7663 171.902 50.4196C172.425 51.0636 172.593 51.9456 172.406 53.0656H167.044C167.007 53.8216 167.25 54.4283 167.772 54.8856C168.295 55.343 168.948 55.5716 169.732 55.5716C170.46 55.5716 171.221 55.4083 172.014 55.0816L172.182 55.9076C171.37 56.2903 170.544 56.4816 169.704 56.4816C168.566 56.4816 167.646 56.1456 166.946 55.4736C166.246 54.8016 165.915 53.901 165.952 52.7716C165.99 51.7356 166.335 50.919 166.988 50.3216C167.642 49.7243 168.449 49.4256 169.41 49.4256ZM169.41 50.2936C168.785 50.2936 168.262 50.4663 167.842 50.8116C167.432 51.1476 167.18 51.619 167.086 52.2256H171.482C171.52 51.6096 171.342 51.1336 170.95 50.7976C170.558 50.4616 170.045 50.2936 169.41 50.2936ZM175.412 55.9076C175.403 56.001 175.375 56.113 175.328 56.2436L174.908 57.5736H174.222L174.53 56.4816C174.204 56.3696 174.04 56.1596 174.04 55.8516C174.04 55.6556 174.106 55.5016 174.236 55.3896C174.367 55.2683 174.53 55.2076 174.726 55.2076C175.072 55.2076 175.296 55.3663 175.398 55.6836C175.417 55.805 175.422 55.8796 175.412 55.9076ZM182.176 52.4356H183.072C184.845 52.4356 185.732 51.479 185.732 49.5656H186.768C186.796 51.3016 186.157 52.4216 184.85 52.9256L187.104 56.2016V56.3276H185.928L183.884 53.2616C183.669 53.3083 183.394 53.3316 183.058 53.3316H182.176V56.3276H181.07V49.5656H182.176V52.4356ZM193.084 55.1096C192.851 55.5483 192.487 55.8796 191.992 56.1036C191.507 56.3276 190.984 56.4396 190.424 56.4396C189.762 56.4396 189.197 56.2576 188.73 55.8936C188.264 55.5203 188.021 55.007 188.002 54.3536C187.984 53.6163 188.226 53.0423 188.73 52.6316C189.244 52.221 189.874 52.0156 190.62 52.0156C191.507 52.0156 192.282 52.2023 192.944 52.5756V51.7496C192.944 51.395 192.823 51.1056 192.58 50.8816C192.347 50.6483 192.081 50.4943 191.782 50.4196C191.484 50.345 191.162 50.3076 190.816 50.3076C189.976 50.3076 189.276 50.471 188.716 50.7976L188.534 49.9576C189.225 49.603 190.042 49.4256 190.984 49.4256C191.843 49.4256 192.552 49.6123 193.112 49.9856C193.682 50.359 193.957 50.9563 193.938 51.7776V54.5916C193.938 54.6103 193.938 54.643 193.938 54.6896C193.938 54.7923 193.938 54.867 193.938 54.9136C193.938 54.9603 193.938 55.0256 193.938 55.1096C193.948 55.1843 193.957 55.2356 193.966 55.2636C193.976 55.2916 193.99 55.3383 194.008 55.4036C194.027 55.469 194.046 55.511 194.064 55.5296C194.092 55.539 194.125 55.567 194.162 55.6136C194.209 55.651 194.256 55.665 194.302 55.6556C194.358 55.6463 194.419 55.6556 194.484 55.6836C194.559 55.7023 194.638 55.693 194.722 55.6556L194.736 56.3696C194.148 56.463 193.724 56.4256 193.462 56.2576C193.21 56.0803 193.084 55.6976 193.084 55.1096ZM192.93 54.0456V53.4016C192.286 53.0376 191.577 52.8556 190.802 52.8556C190.317 52.8556 189.902 52.9863 189.556 53.2476C189.22 53.4996 189.062 53.8543 189.08 54.3116C189.099 54.713 189.253 55.0116 189.542 55.2076C189.841 55.4036 190.2 55.5016 190.62 55.5016C191.124 55.5016 191.61 55.3756 192.076 55.1236C192.543 54.8716 192.828 54.5123 192.93 54.0456ZM196.684 51.3016C196.684 51.955 196.871 52.4683 197.244 52.8416C197.617 53.2056 198.089 53.3736 198.658 53.3456C199.227 53.3176 199.792 53.103 200.352 52.7016V49.5796H201.43V56.3276H200.324V53.8076C199.801 54.097 199.255 54.2603 198.686 54.2976C198.126 54.335 197.617 54.2556 197.16 54.0596C196.703 53.8636 196.325 53.5276 196.026 53.0516C195.737 52.5663 195.592 51.983 195.592 51.3016V49.5796H196.684V51.3016ZM206.584 49.4256C207.723 49.435 208.553 49.7663 209.076 50.4196C209.599 51.0636 209.767 51.9456 209.58 53.0656H204.218C204.181 53.8216 204.423 54.4283 204.946 54.8856C205.469 55.343 206.122 55.5716 206.906 55.5716C207.634 55.5716 208.395 55.4083 209.188 55.0816L209.356 55.9076C208.544 56.2903 207.718 56.4816 206.878 56.4816C205.739 56.4816 204.82 56.1456 204.12 55.4736C203.42 54.8016 203.089 53.901 203.126 52.7716C203.163 51.7356 203.509 50.919 204.162 50.3216C204.815 49.7243 205.623 49.4256 206.584 49.4256ZM206.584 50.2936C205.959 50.2936 205.436 50.4663 205.016 50.8116C204.605 51.1476 204.353 51.619 204.26 52.2256H208.656C208.693 51.6096 208.516 51.1336 208.124 50.7976C207.732 50.4616 207.219 50.2936 206.584 50.2936ZM217.57 51.6376H216.52C216.343 51.2363 216.072 50.9283 215.708 50.7136C215.344 50.499 214.938 50.3916 214.49 50.3916C213.818 50.3916 213.23 50.6156 212.726 51.0636C212.222 51.5116 211.97 52.1323 211.97 52.9256C211.97 53.7096 212.217 54.3303 212.712 54.7876C213.207 55.245 213.781 55.4736 214.434 55.4736C214.901 55.4736 215.33 55.3523 215.722 55.1096C216.114 54.867 216.399 54.517 216.576 54.0596H217.64C217.444 54.825 217.043 55.413 216.436 55.8236C215.839 56.2343 215.167 56.4396 214.42 56.4396C213.468 56.4396 212.637 56.1316 211.928 55.5156C211.219 54.8903 210.864 54.027 210.864 52.9256C210.864 51.815 211.219 50.9516 211.928 50.3356C212.647 49.7103 213.487 49.4023 214.448 49.4116C215.167 49.421 215.815 49.617 216.394 49.9996C216.973 50.3823 217.365 50.9283 217.57 51.6376ZM221.93 56.3136H220.866V50.5456H218.486V49.5796H224.31V50.5456H221.93V56.3136ZM230.987 51.3296C230.987 51.6563 230.903 51.9503 230.735 52.2116C230.567 52.4636 230.315 52.6363 229.979 52.7296C230.409 52.8323 230.749 53.0376 231.001 53.3456C231.253 53.6536 231.379 54.0223 231.379 54.4516C231.379 54.7783 231.319 55.063 231.197 55.3056C231.076 55.539 230.922 55.721 230.735 55.8516C230.558 55.9823 230.329 56.0896 230.049 56.1736C229.769 56.2483 229.508 56.295 229.265 56.3136C229.032 56.3323 228.761 56.3416 228.453 56.3416H225.681V49.5656H228.145C228.435 49.5656 228.691 49.575 228.915 49.5936C229.139 49.6123 229.387 49.659 229.657 49.7336C229.937 49.799 230.166 49.8923 230.343 50.0136C230.521 50.1256 230.67 50.2983 230.791 50.5316C230.922 50.7556 230.987 51.0216 230.987 51.3296ZM226.745 55.4316H228.355C228.542 55.4316 228.668 55.4316 228.733 55.4316C228.799 55.4316 228.92 55.427 229.097 55.4176C229.275 55.399 229.401 55.3803 229.475 55.3616C229.559 55.3336 229.662 55.2963 229.783 55.2496C229.914 55.1936 230.007 55.1283 230.063 55.0536C230.129 54.979 230.185 54.8856 230.231 54.7736C230.278 54.6523 230.301 54.517 230.301 54.3676C230.301 54.1156 230.236 53.9103 230.105 53.7516C229.984 53.5836 229.807 53.467 229.573 53.4016C229.349 53.327 229.135 53.2803 228.929 53.2616C228.733 53.2336 228.505 53.2196 228.243 53.2196H226.745V55.4316ZM226.745 52.3796H228.201C228.444 52.3796 228.64 52.375 228.789 52.3656C228.948 52.347 229.125 52.3096 229.321 52.2536C229.517 52.1883 229.662 52.0856 229.755 51.9456C229.858 51.8056 229.909 51.6283 229.909 51.4136C229.909 51.199 229.858 51.0216 229.755 50.8816C229.653 50.7323 229.508 50.6296 229.321 50.5736C229.135 50.5083 228.957 50.4663 228.789 50.4476C228.631 50.429 228.435 50.4196 228.201 50.4196H226.745V52.3796ZM236.088 49.4256C237.227 49.435 238.057 49.7663 238.58 50.4196C239.103 51.0636 239.271 51.9456 239.084 53.0656H233.722C233.685 53.8216 233.927 54.4283 234.45 54.8856C234.973 55.343 235.626 55.5716 236.41 55.5716C237.138 55.5716 237.899 55.4083 238.692 55.0816L238.86 55.9076C238.048 56.2903 237.222 56.4816 236.382 56.4816C235.243 56.4816 234.324 56.1456 233.624 55.4736C232.924 54.8016 232.593 53.901 232.63 52.7716C232.667 51.7356 233.013 50.919 233.666 50.3216C234.319 49.7243 235.127 49.4256 236.088 49.4256ZM236.088 50.2936C235.463 50.2936 234.94 50.4663 234.52 50.8116C234.109 51.1476 233.857 51.619 233.764 52.2256H238.16C238.197 51.6096 238.02 51.1336 237.628 50.7976C237.236 50.4616 236.723 50.2936 236.088 50.2936ZM251.117 52.9396C251.117 53.4996 251.014 54.0083 250.809 54.4656C250.604 54.923 250.333 55.2916 249.997 55.5716C249.67 55.8516 249.292 56.071 248.863 56.2296C248.443 56.379 248.009 56.4536 247.561 56.4536C247.113 56.4536 246.674 56.379 246.245 56.2296C245.825 56.071 245.447 55.8516 245.111 55.5716C244.784 55.2916 244.518 54.9276 244.313 54.4796C244.108 54.0223 244.005 53.509 244.005 52.9396C244.005 52.3703 244.108 51.857 244.313 51.3996C244.518 50.9423 244.784 50.5736 245.111 50.2936C245.447 50.0136 245.825 49.799 246.245 49.6496C246.674 49.491 247.113 49.4116 247.561 49.4116C248.009 49.4116 248.443 49.491 248.863 49.6496C249.292 49.799 249.67 50.0136 249.997 50.2936C250.333 50.5736 250.604 50.9423 250.809 51.3996C251.014 51.857 251.117 52.3703 251.117 52.9396ZM245.475 51.5116C245.232 51.913 245.111 52.389 245.111 52.9396C245.111 53.4903 245.232 53.9663 245.475 54.3676C245.718 54.769 246.021 55.063 246.385 55.2496C246.749 55.427 247.141 55.5156 247.561 55.5156C247.99 55.5156 248.387 55.427 248.751 55.2496C249.115 55.063 249.418 54.769 249.661 54.3676C249.904 53.9663 250.025 53.4903 250.025 52.9396C250.025 52.389 249.904 51.913 249.661 51.5116C249.418 51.1103 249.115 50.821 248.751 50.6436C248.387 50.4663 247.99 50.3776 247.561 50.3776C247.141 50.3776 246.749 50.4663 246.385 50.6436C246.021 50.821 245.718 51.1103 245.475 51.5116ZM256.208 49.6356C257.207 49.617 258.01 49.939 258.616 50.6016C259.232 51.255 259.531 52.067 259.512 53.0376C259.503 53.971 259.195 54.7736 258.588 55.4456C257.982 56.1176 257.137 56.4536 256.054 56.4536C255.028 56.4536 254.22 56.169 253.632 55.5996C253.044 55.021 252.699 54.2836 252.596 53.3876C252.438 51.9503 252.554 50.7743 252.946 49.8596C253.348 48.945 254.136 48.2076 255.312 47.6476C255.452 47.5823 255.648 47.503 255.9 47.4096C256.152 47.307 256.348 47.223 256.488 47.1576C256.628 47.083 256.773 46.9943 256.922 46.8916C257.081 46.789 257.184 46.6676 257.23 46.5276C257.277 46.3876 257.277 46.2243 257.23 46.0376H258.308C258.383 46.215 258.402 46.3923 258.364 46.5696C258.327 46.7376 258.285 46.8823 258.238 47.0036C258.192 47.125 258.098 47.2463 257.958 47.3676C257.818 47.489 257.688 47.5916 257.566 47.6756C257.454 47.7503 257.305 47.8343 257.118 47.9276C256.941 48.021 256.782 48.0956 256.642 48.1516C256.502 48.2076 256.344 48.273 256.166 48.3476C255.998 48.4223 255.863 48.483 255.76 48.5296C255.07 48.8656 254.547 49.2296 254.192 49.6216C253.847 50.0043 253.628 50.541 253.534 51.2316C253.749 50.7743 254.099 50.3963 254.584 50.0976C255.07 49.799 255.611 49.645 256.208 49.6356ZM253.618 53.0236C253.618 53.761 253.847 54.3583 254.304 54.8156C254.762 55.2636 255.345 55.4876 256.054 55.4876C256.792 55.4876 257.375 55.2496 257.804 54.7736C258.243 54.2976 258.458 53.7096 258.448 53.0096C258.439 52.3376 258.22 51.7683 257.79 51.3016C257.37 50.835 256.796 50.6016 256.068 50.6016C255.34 50.6016 254.752 50.8443 254.304 51.3296C253.856 51.8056 253.628 52.3703 253.618 53.0236ZM267.472 51.6376H266.422C266.245 51.2363 265.974 50.9283 265.61 50.7136C265.246 50.499 264.84 50.3916 264.392 50.3916C263.72 50.3916 263.132 50.6156 262.628 51.0636C262.124 51.5116 261.872 52.1323 261.872 52.9256C261.872 53.7096 262.12 54.3303 262.614 54.7876C263.109 55.245 263.683 55.4736 264.336 55.4736C264.803 55.4736 265.232 55.3523 265.624 55.1096C266.016 54.867 266.301 54.517 266.478 54.0596H267.542C267.346 54.825 266.945 55.413 266.338 55.8236C265.741 56.2343 265.069 56.4396 264.322 56.4396C263.37 56.4396 262.54 56.1316 261.83 55.5156C261.121 54.8903 260.766 54.027 260.766 52.9256C260.766 51.815 261.121 50.9516 261.83 50.3356C262.549 49.7103 263.389 49.4023 264.35 49.4116C265.069 49.421 265.718 49.617 266.296 49.9996C266.875 50.3823 267.267 50.9283 267.472 51.6376ZM273.977 50.5596H271.191L270.799 54.1016C270.706 55.0723 270.482 55.721 270.127 56.0476C269.782 56.3743 269.138 56.4676 268.195 56.3276L268.223 55.5016C268.382 55.5296 268.522 55.5436 268.643 55.5436C268.764 55.5436 268.872 55.5296 268.965 55.5016C269.058 55.4736 269.138 55.4456 269.203 55.4176C269.278 55.3803 269.343 55.3243 269.399 55.2496C269.455 55.175 269.497 55.105 269.525 55.0396C269.562 54.965 269.595 54.8716 269.623 54.7596C269.651 54.6383 269.67 54.5263 269.679 54.4236C269.698 54.321 269.716 54.195 269.735 54.0456L270.253 49.5796H275.055V56.3276H273.977V50.5596ZM283.371 49.7056L280.403 56.8036C280.235 57.205 280.1 57.5083 279.997 57.7136C279.904 57.9283 279.768 58.1943 279.591 58.5116C279.414 58.8383 279.236 59.0763 279.059 59.2256C278.891 59.375 278.686 59.515 278.443 59.6456C278.21 59.7763 277.944 59.8276 277.645 59.7996C277.346 59.7716 277.02 59.6783 276.665 59.5196L276.819 58.6936C277.071 58.8056 277.3 58.8663 277.505 58.8756C277.71 58.885 277.888 58.857 278.037 58.7916C278.196 58.7356 278.34 58.6283 278.471 58.4696C278.602 58.3203 278.709 58.157 278.793 57.9796C278.886 57.8023 278.984 57.5876 279.087 57.3356L279.479 56.3836L276.385 49.7056V49.5936H277.561L280.011 55.0956H280.025L282.265 49.5936H283.371V49.7056ZM289.543 52.4076C290.598 52.4076 291.359 52.165 291.825 51.6796C292.301 51.1943 292.53 50.4943 292.511 49.5796H293.519C293.547 50.3543 293.407 51.031 293.099 51.6096C292.801 52.1883 292.32 52.6036 291.657 52.8556L293.911 56.1876V56.3276H292.791L290.733 53.1916C290.313 53.285 289.917 53.3316 289.543 53.3316V56.3276H288.493V53.3316C288.129 53.3316 287.737 53.285 287.317 53.1916L285.259 56.3276H284.139V56.1876L286.379 52.8556C285.091 52.3703 284.48 51.2783 284.545 49.5796H285.553C285.535 50.5036 285.754 51.2083 286.211 51.6936C286.678 52.1696 287.439 52.4076 288.493 52.4076V49.5656H289.543V52.4076ZM300.31 51.5116L295.648 56.3276H295.326V49.5796H296.39V51.9736L296.306 54.3116L300.898 49.5656H301.262V56.3276H300.198V54.0736L300.31 51.5116ZM308.698 51.3296C308.698 51.6563 308.614 51.9503 308.446 52.2116C308.278 52.4636 308.026 52.6363 307.69 52.7296C308.119 52.8323 308.46 53.0376 308.712 53.3456C308.964 53.6536 309.09 54.0223 309.09 54.4516C309.09 54.7783 309.029 55.063 308.908 55.3056C308.787 55.539 308.633 55.721 308.446 55.8516C308.269 55.9823 308.04 56.0896 307.76 56.1736C307.48 56.2483 307.219 56.295 306.976 56.3136C306.743 56.3323 306.472 56.3416 306.164 56.3416H303.392V49.5656H305.856C306.145 49.5656 306.402 49.575 306.626 49.5936C306.85 49.6123 307.097 49.659 307.368 49.7336C307.648 49.799 307.877 49.8923 308.054 50.0136C308.231 50.1256 308.381 50.2983 308.502 50.5316C308.633 50.7556 308.698 51.0216 308.698 51.3296ZM304.456 55.4316H306.066C306.253 55.4316 306.379 55.4316 306.444 55.4316C306.509 55.4316 306.631 55.427 306.808 55.4176C306.985 55.399 307.111 55.3803 307.186 55.3616C307.27 55.3336 307.373 55.2963 307.494 55.2496C307.625 55.1936 307.718 55.1283 307.774 55.0536C307.839 54.979 307.895 54.8856 307.942 54.7736C307.989 54.6523 308.012 54.517 308.012 54.3676C308.012 54.1156 307.947 53.9103 307.816 53.7516C307.695 53.5836 307.517 53.467 307.284 53.4016C307.06 53.327 306.845 53.2803 306.64 53.2616C306.444 53.2336 306.215 53.2196 305.954 53.2196H304.456V55.4316ZM304.456 52.3796H305.912C306.155 52.3796 306.351 52.375 306.5 52.3656C306.659 52.347 306.836 52.3096 307.032 52.2536C307.228 52.1883 307.373 52.0856 307.466 51.9456C307.569 51.8056 307.62 51.6283 307.62 51.4136C307.62 51.199 307.569 51.0216 307.466 50.8816C307.363 50.7323 307.219 50.6296 307.032 50.5736C306.845 50.5083 306.668 50.4663 306.5 50.4476C306.341 50.429 306.145 50.4196 305.912 50.4196H304.456V52.3796ZM315.311 55.1096C315.078 55.5483 314.714 55.8796 314.219 56.1036C313.734 56.3276 313.211 56.4396 312.651 56.4396C311.988 56.4396 311.424 56.2576 310.957 55.8936C310.49 55.5203 310.248 55.007 310.229 54.3536C310.21 53.6163 310.453 53.0423 310.957 52.6316C311.47 52.221 312.1 52.0156 312.847 52.0156C313.734 52.0156 314.508 52.2023 315.171 52.5756V51.7496C315.171 51.395 315.05 51.1056 314.807 50.8816C314.574 50.6483 314.308 50.4943 314.009 50.4196C313.71 50.345 313.388 50.3076 313.043 50.3076C312.203 50.3076 311.503 50.471 310.943 50.7976L310.761 49.9576C311.452 49.603 312.268 49.4256 313.211 49.4256C314.07 49.4256 314.779 49.6123 315.339 49.9856C315.908 50.359 316.184 50.9563 316.165 51.7776V54.5916C316.165 54.6103 316.165 54.643 316.165 54.6896C316.165 54.7923 316.165 54.867 316.165 54.9136C316.165 54.9603 316.165 55.0256 316.165 55.1096C316.174 55.1843 316.184 55.2356 316.193 55.2636C316.202 55.2916 316.216 55.3383 316.235 55.4036C316.254 55.469 316.272 55.511 316.291 55.5296C316.319 55.539 316.352 55.567 316.389 55.6136C316.436 55.651 316.482 55.665 316.529 55.6556C316.585 55.6463 316.646 55.6556 316.711 55.6836C316.786 55.7023 316.865 55.693 316.949 55.6556L316.963 56.3696C316.375 56.463 315.95 56.4256 315.689 56.2576C315.437 56.0803 315.311 55.6976 315.311 55.1096ZM315.157 54.0456V53.4016C314.513 53.0376 313.804 52.8556 313.029 52.8556C312.544 52.8556 312.128 52.9863 311.783 53.2476C311.447 53.4996 311.288 53.8543 311.307 54.3116C311.326 54.713 311.48 55.0116 311.769 55.2076C312.068 55.4036 312.427 55.5016 312.847 55.5016C313.351 55.5016 313.836 55.3756 314.303 55.1236C314.77 54.8716 315.054 54.5123 315.157 54.0456ZM323.29 49.5796H324.354V56.3276H323.29V53.3176H319.468V56.3276H318.39V49.5796H319.468V52.3656H323.29V49.5796ZM331.468 51.5116L326.806 56.3276H326.484V49.5796H327.548V51.9736L327.464 54.3116L332.056 49.5656H332.42V56.3276H331.356V54.0736L331.468 51.5116ZM333.948 56.2156L335.88 53.7936C335.404 53.6816 335.008 53.4436 334.69 53.0796C334.382 52.7063 334.228 52.2723 334.228 51.7776C334.228 51.1523 334.448 50.6296 334.886 50.2096C335.325 49.7896 335.885 49.5796 336.566 49.5796H339.66V56.3276H338.554V53.9896H336.972L335.11 56.3276H333.948V56.2156ZM336.846 53.0796H338.554V50.4756H336.846C336.408 50.4756 336.044 50.597 335.754 50.8396C335.474 51.073 335.334 51.3903 335.334 51.7916C335.334 52.1836 335.474 52.4963 335.754 52.7296C336.044 52.963 336.408 53.0796 336.846 53.0796ZM350.39 51.5116L345.728 56.3276H345.406V49.5796H346.47V51.9736L346.386 54.3116L350.978 49.5656H351.342V56.3276H350.278V54.0736L350.39 51.5116ZM359.783 56.3136H358.719V50.5456H356.339V49.5796H362.163V50.5456H359.783V56.3136ZM370.049 52.9396C370.049 53.4996 369.946 54.0083 369.741 54.4656C369.535 54.923 369.265 55.2916 368.929 55.5716C368.602 55.8516 368.224 56.071 367.795 56.2296C367.375 56.379 366.941 56.4536 366.493 56.4536C366.045 56.4536 365.606 56.379 365.177 56.2296C364.757 56.071 364.379 55.8516 364.043 55.5716C363.716 55.2916 363.45 54.9276 363.245 54.4796C363.039 54.0223 362.937 53.509 362.937 52.9396C362.937 52.3703 363.039 51.857 363.245 51.3996C363.45 50.9423 363.716 50.5736 364.043 50.2936C364.379 50.0136 364.757 49.799 365.177 49.6496C365.606 49.491 366.045 49.4116 366.493 49.4116C366.941 49.4116 367.375 49.491 367.795 49.6496C368.224 49.799 368.602 50.0136 368.929 50.2936C369.265 50.5736 369.535 50.9423 369.741 51.3996C369.946 51.857 370.049 52.3703 370.049 52.9396ZM364.407 51.5116C364.164 51.913 364.043 52.389 364.043 52.9396C364.043 53.4903 364.164 53.9663 364.407 54.3676C364.649 54.769 364.953 55.063 365.317 55.2496C365.681 55.427 366.073 55.5156 366.493 55.5156C366.922 55.5156 367.319 55.427 367.683 55.2496C368.047 55.063 368.35 54.769 368.593 54.3676C368.835 53.9663 368.957 53.4903 368.957 52.9396C368.957 52.389 368.835 51.913 368.593 51.5116C368.35 51.1103 368.047 50.821 367.683 50.6436C367.319 50.4663 366.922 50.3776 366.493 50.3776C366.073 50.3776 365.681 50.4663 365.317 50.6436C364.953 50.821 364.649 51.1103 364.407 51.5116ZM377.044 51.3296C377.044 51.6563 376.96 51.9503 376.792 52.2116C376.624 52.4636 376.372 52.6363 376.036 52.7296C376.465 52.8323 376.806 53.0376 377.058 53.3456C377.31 53.6536 377.436 54.0223 377.436 54.4516C377.436 54.7783 377.375 55.063 377.254 55.3056C377.132 55.539 376.978 55.721 376.792 55.8516C376.614 55.9823 376.386 56.0896 376.106 56.1736C375.826 56.2483 375.564 56.295 375.322 56.3136C375.088 56.3323 374.818 56.3416 374.51 56.3416H371.738V49.5656H374.202C374.491 49.5656 374.748 49.575 374.972 49.5936C375.196 49.6123 375.443 49.659 375.714 49.7336C375.994 49.799 376.222 49.8923 376.4 50.0136C376.577 50.1256 376.726 50.2983 376.848 50.5316C376.978 50.7556 377.044 51.0216 377.044 51.3296ZM372.802 55.4316H374.412C374.598 55.4316 374.724 55.4316 374.79 55.4316C374.855 55.4316 374.976 55.427 375.154 55.4176C375.331 55.399 375.457 55.3803 375.532 55.3616C375.616 55.3336 375.718 55.2963 375.84 55.2496C375.97 55.1936 376.064 55.1283 376.12 55.0536C376.185 54.979 376.241 54.8856 376.288 54.7736C376.334 54.6523 376.358 54.517 376.358 54.3676C376.358 54.1156 376.292 53.9103 376.162 53.7516C376.04 53.5836 375.863 53.467 375.63 53.4016C375.406 53.327 375.191 53.2803 374.986 53.2616C374.79 53.2336 374.561 53.2196 374.3 53.2196H372.802V55.4316ZM372.802 52.3796H374.258C374.5 52.3796 374.696 52.375 374.846 52.3656C375.004 52.347 375.182 52.3096 375.378 52.2536C375.574 52.1883 375.718 52.0856 375.812 51.9456C375.914 51.8056 375.966 51.6283 375.966 51.4136C375.966 51.199 375.914 51.0216 375.812 50.8816C375.709 50.7323 375.564 50.6296 375.378 50.5736C375.191 50.5083 375.014 50.4663 374.846 50.4476C374.687 50.429 374.491 50.4196 374.258 50.4196H372.802V52.3796ZM383.657 55.1096C383.423 55.5483 383.059 55.8796 382.565 56.1036C382.079 56.3276 381.557 56.4396 380.997 56.4396C380.334 56.4396 379.769 56.2576 379.303 55.8936C378.836 55.5203 378.593 55.007 378.575 54.3536C378.556 53.6163 378.799 53.0423 379.303 52.6316C379.816 52.221 380.446 52.0156 381.193 52.0156C382.079 52.0156 382.854 52.2023 383.517 52.5756V51.7496C383.517 51.395 383.395 51.1056 383.153 50.8816C382.919 50.6483 382.653 50.4943 382.355 50.4196C382.056 50.345 381.734 50.3076 381.389 50.3076C380.549 50.3076 379.849 50.471 379.289 50.7976L379.107 49.9576C379.797 49.603 380.614 49.4256 381.557 49.4256C382.415 49.4256 383.125 49.6123 383.685 49.9856C384.254 50.359 384.529 50.9563 384.511 51.7776V54.5916C384.511 54.6103 384.511 54.643 384.511 54.6896C384.511 54.7923 384.511 54.867 384.511 54.9136C384.511 54.9603 384.511 55.0256 384.511 55.1096C384.52 55.1843 384.529 55.2356 384.539 55.2636C384.548 55.2916 384.562 55.3383 384.581 55.4036C384.599 55.469 384.618 55.511 384.637 55.5296C384.665 55.539 384.697 55.567 384.735 55.6136C384.781 55.651 384.828 55.665 384.875 55.6556C384.931 55.6463 384.991 55.6556 385.057 55.6836C385.131 55.7023 385.211 55.693 385.295 55.6556L385.309 56.3696C384.721 56.463 384.296 56.4256 384.035 56.2576C383.783 56.0803 383.657 55.6976 383.657 55.1096ZM383.503 54.0456V53.4016C382.859 53.0376 382.149 52.8556 381.375 52.8556C380.889 52.8556 380.474 52.9863 380.129 53.2476C379.793 53.4996 379.634 53.8543 379.653 54.3116C379.671 54.713 379.825 55.0116 380.115 55.2076C380.413 55.4036 380.773 55.5016 381.193 55.5016C381.697 55.5016 382.182 55.3756 382.649 55.1236C383.115 54.8716 383.4 54.5123 383.503 54.0456ZM387.871 50.6996C388.403 49.8316 389.225 49.3976 390.335 49.3976C391.287 49.3976 392.034 49.7336 392.575 50.4056C393.117 51.0683 393.387 51.9036 393.387 52.9116C393.387 53.6396 393.219 54.2836 392.883 54.8436C392.547 55.3943 392.123 55.8003 391.609 56.0616C391.096 56.3136 390.517 56.4163 389.873 56.3696C389.229 56.323 388.613 56.1036 388.025 55.7116V59.7996H386.933V51.8336C386.933 51.2176 386.91 50.8443 386.863 50.7136C386.761 50.443 386.518 50.331 386.135 50.3776L386.121 49.5656C386.691 49.4723 387.129 49.5143 387.437 49.6916C387.745 49.8596 387.89 50.1956 387.871 50.6996ZM387.997 52.6316V54.7176C388.604 55.1843 389.239 55.427 389.901 55.4456C390.573 55.4643 391.133 55.245 391.581 54.7876C392.039 54.3303 392.267 53.705 392.267 52.9116C392.267 52.1836 392.085 51.5816 391.721 51.1056C391.367 50.6296 390.835 50.3916 390.125 50.3916C389.509 50.3916 389.005 50.6156 388.613 51.0636C388.221 51.5023 388.016 52.025 387.997 52.6316ZM399.625 55.1096C399.392 55.5483 399.028 55.8796 398.533 56.1036C398.048 56.3276 397.525 56.4396 396.965 56.4396C396.303 56.4396 395.738 56.2576 395.271 55.8936C394.805 55.5203 394.562 55.007 394.543 54.3536C394.525 53.6163 394.767 53.0423 395.271 52.6316C395.785 52.221 396.415 52.0156 397.161 52.0156C398.048 52.0156 398.823 52.2023 399.485 52.5756V51.7496C399.485 51.395 399.364 51.1056 399.121 50.8816C398.888 50.6483 398.622 50.4943 398.323 50.4196C398.025 50.345 397.703 50.3076 397.357 50.3076C396.517 50.3076 395.817 50.471 395.257 50.7976L395.075 49.9576C395.766 49.603 396.583 49.4256 397.525 49.4256C398.384 49.4256 399.093 49.6123 399.653 49.9856C400.223 50.359 400.498 50.9563 400.479 51.7776V54.5916C400.479 54.6103 400.479 54.643 400.479 54.6896C400.479 54.7923 400.479 54.867 400.479 54.9136C400.479 54.9603 400.479 55.0256 400.479 55.1096C400.489 55.1843 400.498 55.2356 400.507 55.2636C400.517 55.2916 400.531 55.3383 400.549 55.4036C400.568 55.469 400.587 55.511 400.605 55.5296C400.633 55.539 400.666 55.567 400.703 55.6136C400.75 55.651 400.797 55.665 400.843 55.6556C400.899 55.6463 400.96 55.6556 401.025 55.6836C401.1 55.7023 401.179 55.693 401.263 55.6556L401.277 56.3696C400.689 56.463 400.265 56.4256 400.003 56.2576C399.751 56.0803 399.625 55.6976 399.625 55.1096ZM399.471 54.0456V53.4016C398.827 53.0376 398.118 52.8556 397.343 52.8556C396.858 52.8556 396.443 52.9863 396.097 53.2476C395.761 53.4996 395.603 53.8543 395.621 54.3116C395.64 54.713 395.794 55.0116 396.083 55.2076C396.382 55.4036 396.741 55.5016 397.161 55.5016C397.665 55.5016 398.151 55.3756 398.617 55.1236C399.084 54.8716 399.369 54.5123 399.471 54.0456ZM37.064 69.5796H43.014V76.3276H41.922V70.5596H38.17V76.3276H37.064V69.5796ZM46.3341 70.6996C46.8661 69.8316 47.6874 69.3976 48.7981 69.3976C49.7501 69.3976 50.4967 69.7336 51.0381 70.4056C51.5794 71.0683 51.8501 71.9036 51.8501 72.9116C51.8501 73.6396 51.6821 74.2836 51.3461 74.8436C51.0101 75.3943 50.5854 75.8003 50.0721 76.0616C49.5587 76.3136 48.9801 76.4163 48.3361 76.3696C47.6921 76.323 47.0761 76.1036 46.4881 75.7116V79.7996H45.3961V71.8336C45.3961 71.2176 45.3727 70.8443 45.3261 70.7136C45.2234 70.443 44.9807 70.331 44.5981 70.3776L44.5841 69.5656C45.1534 69.4723 45.5921 69.5143 45.9001 69.6916C46.2081 69.8596 46.3527 70.1956 46.3341 70.6996ZM46.4601 72.6316V74.7176C47.0667 75.1843 47.7014 75.427 48.3641 75.4456C49.0361 75.4643 49.5961 75.245 50.0441 74.7876C50.5014 74.3303 50.7301 73.705 50.7301 72.9116C50.7301 72.1836 50.5481 71.5816 50.1841 71.1056C49.8294 70.6296 49.2974 70.3916 48.5881 70.3916C47.9721 70.3916 47.4681 70.6156 47.0761 71.0636C46.6841 71.5023 46.4787 72.025 46.4601 72.6316ZM60.2303 72.9396C60.2303 73.4996 60.1276 74.0083 59.9223 74.4656C59.7169 74.923 59.4463 75.2916 59.1103 75.5716C58.7836 75.8516 58.4056 76.071 57.9763 76.2296C57.5563 76.379 57.1223 76.4536 56.6743 76.4536C56.2263 76.4536 55.7876 76.379 55.3583 76.2296C54.9383 76.071 54.5603 75.8516 54.2243 75.5716C53.8976 75.2916 53.6316 74.9276 53.4263 74.4796C53.2209 74.0223 53.1183 73.509 53.1183 72.9396C53.1183 72.3703 53.2209 71.857 53.4263 71.3996C53.6316 70.9423 53.8976 70.5736 54.2243 70.2936C54.5603 70.0136 54.9383 69.799 55.3583 69.6496C55.7876 69.491 56.2263 69.4116 56.6743 69.4116C57.1223 69.4116 57.5563 69.491 57.9763 69.6496C58.4056 69.799 58.7836 70.0136 59.1103 70.2936C59.4463 70.5736 59.7169 70.9423 59.9223 71.3996C60.1276 71.857 60.2303 72.3703 60.2303 72.9396ZM54.5883 71.5116C54.3456 71.913 54.2243 72.389 54.2243 72.9396C54.2243 73.4903 54.3456 73.9663 54.5883 74.3676C54.8309 74.769 55.1343 75.063 55.4983 75.2496C55.8623 75.427 56.2543 75.5156 56.6743 75.5156C57.1036 75.5156 57.5003 75.427 57.8643 75.2496C58.2283 75.063 58.5316 74.769 58.7743 74.3676C59.0169 73.9663 59.1383 73.4903 59.1383 72.9396C59.1383 72.389 59.0169 71.913 58.7743 71.5116C58.5316 71.1103 58.2283 70.821 57.8643 70.6436C57.5003 70.4663 57.1036 70.3776 56.6743 70.3776C56.2543 70.3776 55.8623 70.4663 55.4983 70.6436C55.1343 70.821 54.8309 71.1103 54.5883 71.5116ZM68.1775 71.6376H67.1275C66.9501 71.2363 66.6795 70.9283 66.3155 70.7136C65.9515 70.499 65.5455 70.3916 65.0975 70.3916C64.4255 70.3916 63.8375 70.6156 63.3335 71.0636C62.8295 71.5116 62.5775 72.1323 62.5775 72.9256C62.5775 73.7096 62.8248 74.3303 63.3195 74.7876C63.8141 75.245 64.3881 75.4736 65.0415 75.4736C65.5081 75.4736 65.9375 75.3523 66.3295 75.1096C66.7215 74.867 67.0061 74.517 67.1835 74.0596H68.2475C68.0515 74.825 67.6501 75.413 67.0435 75.8236C66.4461 76.2343 65.7741 76.4396 65.0275 76.4396C64.0755 76.4396 63.2448 76.1316 62.5355 75.5156C61.8261 74.8903 61.4715 74.027 61.4715 72.9256C61.4715 71.815 61.8261 70.9516 62.5355 70.3356C63.2541 69.7103 64.0941 69.4023 65.0555 69.4116C65.7741 69.421 66.4228 69.617 67.0015 69.9996C67.5801 70.3823 67.9721 70.9283 68.1775 71.6376ZM72.4812 76.3276H69.8492V69.5796H70.9132V71.7916H72.4812C73.0132 71.7916 73.4892 71.857 73.9092 71.9876C74.3292 72.1183 74.6838 72.361 74.9732 72.7156C75.2718 73.061 75.4212 73.5043 75.4212 74.0456C75.4212 74.839 75.1365 75.4176 74.5672 75.7816C74.0072 76.1456 73.3118 76.3276 72.4812 76.3276ZM72.4672 72.6596H70.9132V75.4316H72.4672C73.0085 75.4316 73.4565 75.3243 73.8112 75.1096C74.1752 74.8856 74.3572 74.531 74.3572 74.0456C74.3572 73.5696 74.1752 73.2196 73.8112 72.9956C73.4565 72.7716 73.0085 72.6596 72.4672 72.6596ZM80.3195 69.6356C81.3182 69.617 82.1208 69.939 82.7275 70.6016C83.3435 71.255 83.6422 72.067 83.6235 73.0376C83.6142 73.971 83.3062 74.7736 82.6995 75.4456C82.0928 76.1176 81.2482 76.4536 80.1655 76.4536C79.1388 76.4536 78.3315 76.169 77.7435 75.5996C77.1555 75.021 76.8102 74.2836 76.7075 73.3876C76.5488 71.9503 76.6655 70.7743 77.0575 69.8596C77.4588 68.945 78.2475 68.2076 79.4235 67.6476C79.5635 67.5823 79.7595 67.503 80.0115 67.4096C80.2635 67.307 80.4595 67.223 80.5995 67.1576C80.7395 67.083 80.8842 66.9943 81.0335 66.8916C81.1922 66.789 81.2948 66.6676 81.3415 66.5276C81.3882 66.3876 81.3882 66.2243 81.3415 66.0376H82.4195C82.4942 66.215 82.5128 66.3923 82.4755 66.5696C82.4382 66.7376 82.3962 66.8823 82.3495 67.0036C82.3028 67.125 82.2095 67.2463 82.0695 67.3676C81.9295 67.489 81.7988 67.5916 81.6775 67.6756C81.5655 67.7503 81.4162 67.8343 81.2295 67.9276C81.0522 68.021 80.8935 68.0956 80.7535 68.1516C80.6135 68.2076 80.4548 68.273 80.2775 68.3476C80.1095 68.4223 79.9742 68.483 79.8715 68.5296C79.1808 68.8656 78.6582 69.2296 78.3035 69.6216C77.9582 70.0043 77.7388 70.541 77.6455 71.2316C77.8602 70.7743 78.2102 70.3963 78.6955 70.0976C79.1808 69.799 79.7222 69.645 80.3195 69.6356ZM77.7295 73.0236C77.7295 73.761 77.9582 74.3583 78.4155 74.8156C78.8728 75.2636 79.4562 75.4876 80.1655 75.4876C80.9028 75.4876 81.4862 75.2496 81.9155 74.7736C82.3542 74.2976 82.5688 73.7096 82.5595 73.0096C82.5502 72.3376 82.3308 71.7683 81.9015 71.3016C81.4815 70.835 80.9075 70.6016 80.1795 70.6016C79.4515 70.6016 78.8635 70.8443 78.4155 71.3296C77.9675 71.8056 77.7388 72.3703 77.7295 73.0236ZM89.8617 75.1096C89.6284 75.5483 89.2644 75.8796 88.7697 76.1036C88.2844 76.3276 87.7617 76.4396 87.2017 76.4396C86.5391 76.4396 85.9744 76.2576 85.5077 75.8936C85.0411 75.5203 84.7984 75.007 84.7797 74.3536C84.7611 73.6163 85.0037 73.0423 85.5077 72.6316C86.0211 72.221 86.6511 72.0156 87.3977 72.0156C88.2844 72.0156 89.0591 72.2023 89.7217 72.5756V71.7496C89.7217 71.395 89.6004 71.1056 89.3577 70.8816C89.1244 70.6483 88.8584 70.4943 88.5597 70.4196C88.2611 70.345 87.9391 70.3076 87.5937 70.3076C86.7537 70.3076 86.0537 70.471 85.4937 70.7976L85.3117 69.9576C86.0024 69.603 86.8191 69.4256 87.7617 69.4256C88.6204 69.4256 89.3297 69.6123 89.8897 69.9856C90.4591 70.359 90.7344 70.9563 90.7157 71.7776V74.5916C90.7157 74.6103 90.7157 74.643 90.7157 74.6896C90.7157 74.7923 90.7157 74.867 90.7157 74.9136C90.7157 74.9603 90.7157 75.0256 90.7157 75.1096C90.7251 75.1843 90.7344 75.2356 90.7437 75.2636C90.7531 75.2916 90.7671 75.3383 90.7857 75.4036C90.8044 75.469 90.8231 75.511 90.8417 75.5296C90.8697 75.539 90.9024 75.567 90.9397 75.6136C90.9864 75.651 91.0331 75.665 91.0797 75.6556C91.1357 75.6463 91.1964 75.6556 91.2617 75.6836C91.3364 75.7023 91.4157 75.693 91.4997 75.6556L91.5137 76.3696C90.9257 76.463 90.5011 76.4256 90.2397 76.2576C89.9877 76.0803 89.8617 75.6976 89.8617 75.1096ZM89.7077 74.0456V73.4016C89.0637 73.0376 88.3544 72.8556 87.5797 72.8556C87.0944 72.8556 86.6791 72.9863 86.3337 73.2476C85.9977 73.4996 85.8391 73.8543 85.8577 74.3116C85.8764 74.713 86.0304 75.0116 86.3197 75.2076C86.6184 75.4036 86.9777 75.5016 87.3977 75.5016C87.9017 75.5016 88.3871 75.3756 88.8537 75.1236C89.3204 74.8716 89.6051 74.5123 89.7077 74.0456ZM96.326 70.8536L96.27 69.9856C96.9327 69.6123 97.726 69.435 98.65 69.4536C99.378 69.4536 99.994 69.5983 100.498 69.8876C101.002 70.1676 101.254 70.625 101.254 71.2596C101.254 71.605 101.151 71.9176 100.946 72.1976C100.75 72.4776 100.493 72.6503 100.176 72.7156C100.633 72.8183 100.993 73.0143 101.254 73.3036C101.525 73.593 101.66 73.9616 101.66 74.4096C101.66 75.1003 101.38 75.6183 100.82 75.9636C100.269 76.309 99.602 76.4816 98.818 76.4816C97.698 76.4816 96.7693 76.2296 96.032 75.7256L96.088 74.7596C96.34 74.9836 96.718 75.1703 97.222 75.3196C97.726 75.469 98.2067 75.5436 98.664 75.5436C99.196 75.5343 99.6393 75.4363 99.994 75.2496C100.349 75.063 100.526 74.7643 100.526 74.3536C100.526 74.111 100.465 73.9103 100.344 73.7516C100.223 73.593 100.05 73.481 99.826 73.4156C99.6113 73.341 99.3967 73.2943 99.182 73.2756C98.9767 73.2476 98.7387 73.2336 98.468 73.2336H97.572V72.3656C97.656 72.3656 97.7913 72.3703 97.978 72.3796C98.1647 72.3796 98.3093 72.3796 98.412 72.3796C98.664 72.3796 98.8647 72.3703 99.014 72.3516C99.1727 72.333 99.3453 72.2956 99.532 72.2396C99.728 72.1743 99.8727 72.0716 99.966 71.9316C100.059 71.7823 100.106 71.6003 100.106 71.3856C100.106 70.695 99.56 70.3496 98.468 70.3496C97.628 70.3496 96.914 70.5176 96.326 70.8536ZM107.881 75.1096C107.648 75.5483 107.284 75.8796 106.789 76.1036C106.304 76.3276 105.781 76.4396 105.221 76.4396C104.559 76.4396 103.994 76.2576 103.527 75.8936C103.061 75.5203 102.818 75.007 102.799 74.3536C102.781 73.6163 103.023 73.0423 103.527 72.6316C104.041 72.221 104.671 72.0156 105.417 72.0156C106.304 72.0156 107.079 72.2023 107.741 72.5756V71.7496C107.741 71.395 107.62 71.1056 107.377 70.8816C107.144 70.6483 106.878 70.4943 106.579 70.4196C106.281 70.345 105.959 70.3076 105.613 70.3076C104.773 70.3076 104.073 70.471 103.513 70.7976L103.331 69.9576C104.022 69.603 104.839 69.4256 105.781 69.4256C106.64 69.4256 107.349 69.6123 107.909 69.9856C108.479 70.359 108.754 70.9563 108.735 71.7776V74.5916C108.735 74.6103 108.735 74.643 108.735 74.6896C108.735 74.7923 108.735 74.867 108.735 74.9136C108.735 74.9603 108.735 75.0256 108.735 75.1096C108.745 75.1843 108.754 75.2356 108.763 75.2636C108.773 75.2916 108.787 75.3383 108.805 75.4036C108.824 75.469 108.843 75.511 108.861 75.5296C108.889 75.539 108.922 75.567 108.959 75.6136C109.006 75.651 109.053 75.665 109.099 75.6556C109.155 75.6463 109.216 75.6556 109.281 75.6836C109.356 75.7023 109.435 75.693 109.519 75.6556L109.533 76.3696C108.945 76.463 108.521 76.4256 108.259 76.2576C108.007 76.0803 107.881 75.6976 107.881 75.1096ZM107.727 74.0456V73.4016C107.083 73.0376 106.374 72.8556 105.599 72.8556C105.114 72.8556 104.699 72.9863 104.353 73.2476C104.017 73.4996 103.859 73.8543 103.877 74.3116C103.896 74.713 104.05 75.0116 104.339 75.2076C104.638 75.4036 104.997 75.5016 105.417 75.5016C105.921 75.5016 106.407 75.3756 106.873 75.1236C107.34 74.8716 107.625 74.5123 107.727 74.0456ZM111.212 77.9936H110.26L110.232 75.4596H110.246H110.456C110.606 75.4503 110.736 75.4223 110.848 75.3756C110.97 75.329 111.072 75.2403 111.156 75.1096C111.24 74.979 111.306 74.8716 111.352 74.7876C111.408 74.7036 111.46 74.545 111.506 74.3116C111.553 74.069 111.586 73.901 111.604 73.8076C111.623 73.705 111.651 73.4996 111.688 73.1916C111.698 73.1076 111.707 73.0423 111.716 72.9956L112.206 69.5796H116.672V75.4596H117.596L117.554 77.9936H116.616V76.3276H111.212V77.9936ZM115.636 75.4596V70.5036H113.102L112.752 73.2336C112.678 73.9336 112.575 74.447 112.444 74.7736C112.314 75.1003 112.118 75.329 111.856 75.4596H115.636ZM123.686 75.1096C123.453 75.5483 123.089 75.8796 122.594 76.1036C122.109 76.3276 121.586 76.4396 121.026 76.4396C120.363 76.4396 119.799 76.2576 119.332 75.8936C118.865 75.5203 118.623 75.007 118.604 74.3536C118.585 73.6163 118.828 73.0423 119.332 72.6316C119.845 72.221 120.475 72.0156 121.222 72.0156C122.109 72.0156 122.883 72.2023 123.546 72.5756V71.7496C123.546 71.395 123.425 71.1056 123.182 70.8816C122.949 70.6483 122.683 70.4943 122.384 70.4196C122.085 70.345 121.763 70.3076 121.418 70.3076C120.578 70.3076 119.878 70.471 119.318 70.7976L119.136 69.9576C119.827 69.603 120.643 69.4256 121.586 69.4256C122.445 69.4256 123.154 69.6123 123.714 69.9856C124.283 70.359 124.559 70.9563 124.54 71.7776V74.5916C124.54 74.6103 124.54 74.643 124.54 74.6896C124.54 74.7923 124.54 74.867 124.54 74.9136C124.54 74.9603 124.54 75.0256 124.54 75.1096C124.549 75.1843 124.559 75.2356 124.568 75.2636C124.577 75.2916 124.591 75.3383 124.61 75.4036C124.629 75.469 124.647 75.511 124.666 75.5296C124.694 75.539 124.727 75.567 124.764 75.6136C124.811 75.651 124.857 75.665 124.904 75.6556C124.96 75.6463 125.021 75.6556 125.086 75.6836C125.161 75.7023 125.24 75.693 125.324 75.6556L125.338 76.3696C124.75 76.463 124.325 76.4256 124.064 76.2576C123.812 76.0803 123.686 75.6976 123.686 75.1096ZM123.532 74.0456V73.4016C122.888 73.0376 122.179 72.8556 121.404 72.8556C120.919 72.8556 120.503 72.9863 120.158 73.2476C119.822 73.4996 119.663 73.8543 119.682 74.3116C119.701 74.713 119.855 75.0116 120.144 75.2076C120.443 75.4036 120.802 75.5016 121.222 75.5016C121.726 75.5016 122.211 75.3756 122.678 75.1236C123.145 74.8716 123.429 74.5123 123.532 74.0456ZM132.071 71.3296C132.071 71.6563 131.987 71.9503 131.819 72.2116C131.651 72.4636 131.399 72.6363 131.063 72.7296C131.493 72.8323 131.833 73.0376 132.085 73.3456C132.337 73.6536 132.463 74.0223 132.463 74.4516C132.463 74.7783 132.403 75.063 132.281 75.3056C132.16 75.539 132.006 75.721 131.819 75.8516C131.642 75.9823 131.413 76.0896 131.133 76.1736C130.853 76.2483 130.592 76.295 130.349 76.3136C130.116 76.3323 129.845 76.3416 129.537 76.3416H126.765V69.5656H129.229C129.519 69.5656 129.775 69.575 129.999 69.5936C130.223 69.6123 130.471 69.659 130.741 69.7336C131.021 69.799 131.25 69.8923 131.427 70.0136C131.605 70.1256 131.754 70.2983 131.875 70.5316C132.006 70.7556 132.071 71.0216 132.071 71.3296ZM127.829 75.4316H129.439C129.626 75.4316 129.752 75.4316 129.817 75.4316C129.883 75.4316 130.004 75.427 130.181 75.4176C130.359 75.399 130.485 75.3803 130.559 75.3616C130.643 75.3336 130.746 75.2963 130.867 75.2496C130.998 75.1936 131.091 75.1283 131.147 75.0536C131.213 74.979 131.269 74.8856 131.315 74.7736C131.362 74.6523 131.385 74.517 131.385 74.3676C131.385 74.1156 131.32 73.9103 131.189 73.7516C131.068 73.5836 130.891 73.467 130.657 73.4016C130.433 73.327 130.219 73.2803 130.013 73.2616C129.817 73.2336 129.589 73.2196 129.327 73.2196H127.829V75.4316ZM127.829 72.3796H129.285C129.528 72.3796 129.724 72.375 129.873 72.3656C130.032 72.347 130.209 72.3096 130.405 72.2536C130.601 72.1883 130.746 72.0856 130.839 71.9456C130.942 71.8056 130.993 71.6283 130.993 71.4136C130.993 71.199 130.942 71.0216 130.839 70.8816C130.737 70.7323 130.592 70.6296 130.405 70.5736C130.219 70.5083 130.041 70.4663 129.873 70.4476C129.715 70.429 129.519 70.4196 129.285 70.4196H127.829V72.3796ZM138.684 75.1096C138.451 75.5483 138.087 75.8796 137.592 76.1036C137.107 76.3276 136.584 76.4396 136.024 76.4396C135.361 76.4396 134.797 76.2576 134.33 75.8936C133.863 75.5203 133.621 75.007 133.602 74.3536C133.583 73.6163 133.826 73.0423 134.33 72.6316C134.843 72.221 135.473 72.0156 136.22 72.0156C137.107 72.0156 137.881 72.2023 138.544 72.5756V71.7496C138.544 71.395 138.423 71.1056 138.18 70.8816C137.947 70.6483 137.681 70.4943 137.382 70.4196C137.083 70.345 136.761 70.3076 136.416 70.3076C135.576 70.3076 134.876 70.471 134.316 70.7976L134.134 69.9576C134.825 69.603 135.641 69.4256 136.584 69.4256C137.443 69.4256 138.152 69.6123 138.712 69.9856C139.281 70.359 139.557 70.9563 139.538 71.7776V74.5916C139.538 74.6103 139.538 74.643 139.538 74.6896C139.538 74.7923 139.538 74.867 139.538 74.9136C139.538 74.9603 139.538 75.0256 139.538 75.1096C139.547 75.1843 139.557 75.2356 139.566 75.2636C139.575 75.2916 139.589 75.3383 139.608 75.4036C139.627 75.469 139.645 75.511 139.664 75.5296C139.692 75.539 139.725 75.567 139.762 75.6136C139.809 75.651 139.855 75.665 139.902 75.6556C139.958 75.6463 140.019 75.6556 140.084 75.6836C140.159 75.7023 140.238 75.693 140.322 75.6556L140.336 76.3696C139.748 76.463 139.323 76.4256 139.062 76.2576C138.81 76.0803 138.684 75.6976 138.684 75.1096ZM138.53 74.0456V73.4016C137.886 73.0376 137.177 72.8556 136.402 72.8556C135.917 72.8556 135.501 72.9863 135.156 73.2476C134.82 73.4996 134.661 73.8543 134.68 74.3116C134.699 74.713 134.853 75.0116 135.142 75.2076C135.441 75.4036 135.8 75.5016 136.22 75.5016C136.724 75.5016 137.209 75.3756 137.676 75.1236C138.143 74.8716 138.427 74.5123 138.53 74.0456ZM144.273 76.3136H143.209V70.5456H140.829V69.5796H146.653V70.5456H144.273V76.3136ZM150.657 76.3276H148.025V69.5796H149.089V71.7916H150.657C151.189 71.7916 151.665 71.857 152.085 71.9876C152.505 72.1183 152.86 72.361 153.149 72.7156C153.448 73.061 153.597 73.5043 153.597 74.0456C153.597 74.839 153.312 75.4176 152.743 75.7816C152.183 76.1456 151.488 76.3276 150.657 76.3276ZM150.643 72.6596H149.089V75.4316H150.643C151.184 75.4316 151.632 75.3243 151.987 75.1096C152.351 74.8856 152.533 74.531 152.533 74.0456C152.533 73.5696 152.351 73.2196 151.987 72.9956C151.632 72.7716 151.184 72.6596 150.643 72.6596ZM164.022 71.3296C164.022 71.6563 163.938 71.9503 163.77 72.2116C163.602 72.4636 163.35 72.6363 163.014 72.7296C163.444 72.8323 163.784 73.0376 164.036 73.3456C164.288 73.6536 164.414 74.0223 164.414 74.4516C164.414 74.7783 164.354 75.063 164.232 75.3056C164.111 75.539 163.957 75.721 163.77 75.8516C163.593 75.9823 163.364 76.0896 163.084 76.1736C162.804 76.2483 162.543 76.295 162.3 76.3136C162.067 76.3323 161.796 76.3416 161.488 76.3416H158.716V69.5656H161.18C161.47 69.5656 161.726 69.575 161.95 69.5936C162.174 69.6123 162.422 69.659 162.692 69.7336C162.972 69.799 163.201 69.8923 163.378 70.0136C163.556 70.1256 163.705 70.2983 163.826 70.5316C163.957 70.7556 164.022 71.0216 164.022 71.3296ZM159.78 75.4316H161.39C161.577 75.4316 161.703 75.4316 161.768 75.4316C161.834 75.4316 161.955 75.427 162.132 75.4176C162.31 75.399 162.436 75.3803 162.51 75.3616C162.594 75.3336 162.697 75.2963 162.818 75.2496C162.949 75.1936 163.042 75.1283 163.098 75.0536C163.164 74.979 163.22 74.8856 163.266 74.7736C163.313 74.6523 163.336 74.517 163.336 74.3676C163.336 74.1156 163.271 73.9103 163.14 73.7516C163.019 73.5836 162.842 73.467 162.608 73.4016C162.384 73.327 162.17 73.2803 161.964 73.2616C161.768 73.2336 161.54 73.2196 161.278 73.2196H159.78V75.4316ZM159.78 72.3796H161.236C161.479 72.3796 161.675 72.375 161.824 72.3656C161.983 72.347 162.16 72.3096 162.356 72.2536C162.552 72.1883 162.697 72.0856 162.79 71.9456C162.893 71.8056 162.944 71.6283 162.944 71.4136C162.944 71.199 162.893 71.0216 162.79 70.8816C162.688 70.7323 162.543 70.6296 162.356 70.5736C162.17 70.5083 161.992 70.4663 161.824 70.4476C161.666 70.429 161.47 70.4196 161.236 70.4196H159.78V72.3796ZM176.4 72.9396C176.4 73.4996 176.298 74.0083 176.092 74.4656C175.887 74.923 175.616 75.2916 175.28 75.5716C174.954 75.8516 174.576 76.071 174.146 76.2296C173.726 76.379 173.292 76.4536 172.844 76.4536C172.396 76.4536 171.958 76.379 171.528 76.2296C171.108 76.071 170.73 75.8516 170.394 75.5716C170.068 75.2916 169.802 74.9276 169.596 74.4796C169.391 74.0223 169.288 73.509 169.288 72.9396C169.288 72.3703 169.391 71.857 169.596 71.3996C169.802 70.9423 170.068 70.5736 170.394 70.2936C170.73 70.0136 171.108 69.799 171.528 69.6496C171.958 69.491 172.396 69.4116 172.844 69.4116C173.292 69.4116 173.726 69.491 174.146 69.6496C174.576 69.799 174.954 70.0136 175.28 70.2936C175.616 70.5736 175.887 70.9423 176.092 71.3996C176.298 71.857 176.4 72.3703 176.4 72.9396ZM170.758 71.5116C170.516 71.913 170.394 72.389 170.394 72.9396C170.394 73.4903 170.516 73.9663 170.758 74.3676C171.001 74.769 171.304 75.063 171.668 75.2496C172.032 75.427 172.424 75.5156 172.844 75.5156C173.274 75.5156 173.67 75.427 174.034 75.2496C174.398 75.063 174.702 74.769 174.944 74.3676C175.187 73.9663 175.308 73.4903 175.308 72.9396C175.308 72.389 175.187 71.913 174.944 71.5116C174.702 71.1103 174.398 70.821 174.034 70.6436C173.67 70.4663 173.274 70.3776 172.844 70.3776C172.424 70.3776 172.032 70.4663 171.668 70.6436C171.304 70.821 171.001 71.1103 170.758 71.5116ZM180.613 76.3136H179.549V70.5456H177.169V69.5796H182.993V70.5456H180.613V76.3136ZM184.138 77.9936H183.186L183.158 75.4596H183.172H183.382C183.532 75.4503 183.662 75.4223 183.774 75.3756C183.896 75.329 183.998 75.2403 184.082 75.1096C184.166 74.979 184.232 74.8716 184.278 74.7876C184.334 74.7036 184.386 74.545 184.432 74.3116C184.479 74.069 184.512 73.901 184.53 73.8076C184.549 73.705 184.577 73.4996 184.614 73.1916C184.624 73.1076 184.633 73.0423 184.642 72.9956L185.132 69.5796H189.598V75.4596H190.522L190.48 77.9936H189.542V76.3276H184.138V77.9936ZM188.562 75.4596V70.5036H186.028L185.678 73.2336C185.604 73.9336 185.501 74.447 185.37 74.7736C185.24 75.1003 185.044 75.329 184.782 75.4596H188.562ZM195.004 69.4256C196.143 69.435 196.973 69.7663 197.496 70.4196C198.019 71.0636 198.187 71.9456 198 73.0656H192.638C192.601 73.8216 192.843 74.4283 193.366 74.8856C193.889 75.343 194.542 75.5716 195.326 75.5716C196.054 75.5716 196.815 75.4083 197.608 75.0816L197.776 75.9076C196.964 76.2903 196.138 76.4816 195.298 76.4816C194.159 76.4816 193.24 76.1456 192.54 75.4736C191.84 74.8016 191.509 73.901 191.546 72.7716C191.583 71.7356 191.929 70.919 192.582 70.3216C193.235 69.7243 194.043 69.4256 195.004 69.4256ZM195.004 70.2936C194.379 70.2936 193.856 70.4663 193.436 70.8116C193.025 71.1476 192.773 71.619 192.68 72.2256H197.076C197.113 71.6096 196.936 71.1336 196.544 70.7976C196.152 70.4616 195.639 70.2936 195.004 70.2936ZM204.688 70.5596H201.902L201.51 74.1016C201.417 75.0723 201.193 75.721 200.838 76.0476C200.493 76.3743 199.849 76.4676 198.906 76.3276L198.934 75.5016C199.093 75.5296 199.233 75.5436 199.354 75.5436C199.475 75.5436 199.583 75.5296 199.676 75.5016C199.769 75.4736 199.849 75.4456 199.914 75.4176C199.989 75.3803 200.054 75.3243 200.11 75.2496C200.166 75.175 200.208 75.105 200.236 75.0396C200.273 74.965 200.306 74.8716 200.334 74.7596C200.362 74.6383 200.381 74.5263 200.39 74.4236C200.409 74.321 200.427 74.195 200.446 74.0456L200.964 69.5796H205.766V76.3276H204.688V70.5596ZM211.517 69.5796H217.467V76.3276H216.375V70.5596H212.623V76.3276H211.517V69.5796ZM220.787 70.6996C221.319 69.8316 222.141 69.3976 223.251 69.3976C224.203 69.3976 224.95 69.7336 225.491 70.4056C226.033 71.0683 226.303 71.9036 226.303 72.9116C226.303 73.6396 226.135 74.2836 225.799 74.8436C225.463 75.3943 225.039 75.8003 224.525 76.0616C224.012 76.3136 223.433 76.4163 222.789 76.3696C222.145 76.323 221.529 76.1036 220.941 75.7116V79.7996H219.849V71.8336C219.849 71.2176 219.826 70.8443 219.779 70.7136C219.677 70.443 219.434 70.331 219.051 70.3776L219.037 69.5656C219.607 69.4723 220.045 69.5143 220.353 69.6916C220.661 69.8596 220.806 70.1956 220.787 70.6996ZM220.913 72.6316V74.7176C221.52 75.1843 222.155 75.427 222.817 75.4456C223.489 75.4643 224.049 75.245 224.497 74.7876C224.955 74.3303 225.183 73.705 225.183 72.9116C225.183 72.1836 225.001 71.5816 224.637 71.1056C224.283 70.6296 223.751 70.3916 223.041 70.3916C222.425 70.3916 221.921 70.6156 221.529 71.0636C221.137 71.5023 220.932 72.025 220.913 72.6316ZM234.683 72.9396C234.683 73.4996 234.581 74.0083 234.375 74.4656C234.17 74.923 233.899 75.2916 233.563 75.5716C233.237 75.8516 232.859 76.071 232.429 76.2296C232.009 76.379 231.575 76.4536 231.127 76.4536C230.679 76.4536 230.241 76.379 229.811 76.2296C229.391 76.071 229.013 75.8516 228.677 75.5716C228.351 75.2916 228.085 74.9276 227.879 74.4796C227.674 74.0223 227.571 73.509 227.571 72.9396C227.571 72.3703 227.674 71.857 227.879 71.3996C228.085 70.9423 228.351 70.5736 228.677 70.2936C229.013 70.0136 229.391 69.799 229.811 69.6496C230.241 69.491 230.679 69.4116 231.127 69.4116C231.575 69.4116 232.009 69.491 232.429 69.6496C232.859 69.799 233.237 70.0136 233.563 70.2936C233.899 70.5736 234.17 70.9423 234.375 71.3996C234.581 71.857 234.683 72.3703 234.683 72.9396ZM229.041 71.5116C228.799 71.913 228.677 72.389 228.677 72.9396C228.677 73.4903 228.799 73.9663 229.041 74.3676C229.284 74.769 229.587 75.063 229.951 75.2496C230.315 75.427 230.707 75.5156 231.127 75.5156C231.557 75.5156 231.953 75.427 232.317 75.2496C232.681 75.063 232.985 74.769 233.227 74.3676C233.47 73.9663 233.591 73.4903 233.591 72.9396C233.591 72.389 233.47 71.913 233.227 71.5116C232.985 71.1103 232.681 70.821 232.317 70.6436C231.953 70.4663 231.557 70.3776 231.127 70.3776C230.707 70.3776 230.315 70.4663 229.951 70.6436C229.587 70.821 229.284 71.1103 229.041 71.5116ZM236.488 77.9936H235.536L235.508 75.4596H235.522H235.732C235.881 75.4503 236.012 75.4223 236.124 75.3756C236.245 75.329 236.348 75.2403 236.432 75.1096C236.516 74.979 236.581 74.8716 236.628 74.7876C236.684 74.7036 236.735 74.545 236.782 74.3116C236.829 74.069 236.861 73.901 236.88 73.8076C236.899 73.705 236.927 73.4996 236.964 73.1916C236.973 73.1076 236.983 73.0423 236.992 72.9956L237.482 69.5796H241.948V75.4596H242.872L242.83 77.9936H241.892V76.3276H236.488V77.9936ZM240.912 75.4596V70.5036H238.378L238.028 73.2336C237.953 73.9336 237.851 74.447 237.72 74.7736C237.589 75.1003 237.393 75.329 237.132 75.4596H240.912ZM248.961 75.1096C248.728 75.5483 248.364 75.8796 247.869 76.1036C247.384 76.3276 246.861 76.4396 246.301 76.4396C245.639 76.4396 245.074 76.2576 244.607 75.8936C244.141 75.5203 243.898 75.007 243.879 74.3536C243.861 73.6163 244.103 73.0423 244.607 72.6316C245.121 72.221 245.751 72.0156 246.497 72.0156C247.384 72.0156 248.159 72.2023 248.821 72.5756V71.7496C248.821 71.395 248.7 71.1056 248.457 70.8816C248.224 70.6483 247.958 70.4943 247.659 70.4196C247.361 70.345 247.039 70.3076 246.693 70.3076C245.853 70.3076 245.153 70.471 244.593 70.7976L244.411 69.9576C245.102 69.603 245.919 69.4256 246.861 69.4256C247.72 69.4256 248.429 69.6123 248.989 69.9856C249.559 70.359 249.834 70.9563 249.815 71.7776V74.5916C249.815 74.6103 249.815 74.643 249.815 74.6896C249.815 74.7923 249.815 74.867 249.815 74.9136C249.815 74.9603 249.815 75.0256 249.815 75.1096C249.825 75.1843 249.834 75.2356 249.843 75.2636C249.853 75.2916 249.867 75.3383 249.885 75.4036C249.904 75.469 249.923 75.511 249.941 75.5296C249.969 75.539 250.002 75.567 250.039 75.6136C250.086 75.651 250.133 75.665 250.179 75.6556C250.235 75.6463 250.296 75.6556 250.361 75.6836C250.436 75.7023 250.515 75.693 250.599 75.6556L250.613 76.3696C250.025 76.463 249.601 76.4256 249.339 76.2576C249.087 76.0803 248.961 75.6976 248.961 75.1096ZM248.807 74.0456V73.4016C248.163 73.0376 247.454 72.8556 246.679 72.8556C246.194 72.8556 245.779 72.9863 245.433 73.2476C245.097 73.4996 244.939 73.8543 244.957 74.3116C244.976 74.713 245.13 75.0116 245.419 75.2076C245.718 75.4036 246.077 75.5016 246.497 75.5016C247.001 75.5016 247.487 75.3756 247.953 75.1236C248.42 74.8716 248.705 74.5123 248.807 74.0456ZM256.745 72.4076C257.799 72.4076 258.56 72.165 259.027 71.6796C259.503 71.1943 259.731 70.4943 259.713 69.5796H260.721C260.749 70.3543 260.609 71.031 260.301 71.6096C260.002 72.1883 259.521 72.6036 258.859 72.8556L261.113 76.1876V76.3276H259.993L257.935 73.1916C257.515 73.285 257.118 73.3316 256.745 73.3316V76.3276H255.695V73.3316C255.331 73.3316 254.939 73.285 254.519 73.1916L252.461 76.3276H251.341V76.1876L253.581 72.8556C252.293 72.3703 251.681 71.2783 251.747 69.5796H252.755C252.736 70.5036 252.955 71.2083 253.413 71.6936C253.879 72.1696 254.64 72.4076 255.695 72.4076V69.5656H256.745V72.4076Z" fill="#444B58"/>
<g filter="url(#filter1_d)">
<ellipse cx="37" cy="116.276" rx="10" ry="9.94828" fill="white"/>
</g>
<path d="M37.78 118.852H36.184C36.1653 118.36 36.212 117.923 36.324 117.543C36.4453 117.162 36.604 116.851 36.8 116.609C37.0053 116.359 37.2107 116.131 37.416 115.927C37.6213 115.723 37.8173 115.5 38.004 115.258C38.2 115.008 38.3307 114.748 38.396 114.478C38.4707 113.931 38.3587 113.504 38.06 113.197C37.7613 112.881 37.3693 112.724 36.884 112.724C36.52 112.724 36.1887 112.844 35.89 113.086C35.5913 113.327 35.414 113.647 35.358 114.047H34C34.0373 113.146 34.3127 112.464 34.826 111.999C35.3487 111.535 36.03 111.303 36.87 111.303C37.6447 111.284 38.3213 111.475 38.9 111.874C39.488 112.273 39.838 112.798 39.95 113.448C40.006 113.801 40.0153 114.107 39.978 114.367C39.9407 114.701 39.8333 115.017 39.656 115.314C39.488 115.602 39.2967 115.857 39.082 116.08C38.8767 116.303 38.6713 116.54 38.466 116.79C38.2607 117.032 38.0927 117.329 37.962 117.682C37.8313 118.025 37.7707 118.415 37.78 118.852ZM37.626 121.052C37.458 121.21 37.2433 121.289 36.982 121.289C36.7207 121.289 36.4967 121.21 36.31 121.052C36.1327 120.894 36.044 120.69 36.044 120.439C36.044 120.189 36.1327 119.985 36.31 119.827C36.4967 119.669 36.7207 119.59 36.982 119.59C37.2433 119.59 37.458 119.669 37.626 119.827C37.8033 119.985 37.892 120.189 37.892 120.439C37.892 120.69 37.8033 120.894 37.626 121.052Z" fill="#444B58"/>
<defs>
<filter id="filter0_d" x="0" y="0.327637" width="466" height="128" filterUnits="userSpaceOnUse" color-interpolation-filters="sRGB">
<feFlood flood-opacity="0" result="BackgroundImageFix"/>
<feColorMatrix in="SourceAlpha" type="matrix" values="0 0 0 0 0 0 0 0 0 0 0 0 0 0 0 0 0 0 127 0"/>
<feOffset dx="4" dy="8"/>
<feGaussianBlur stdDeviation="10"/>
<feColorMatrix type="matrix" values="0 0 0 0 0 0 0 0 0 0.0514323 0 0 0 0 0.329167 0 0 0 0.2 0"/>
<feBlend mode="normal" in2="BackgroundImageFix" result="effect1_dropShadow"/>
<feBlend mode="normal" in="SourceGraphic" in2="effect1_dropShadow" result="shape"/>
</filter>
<filter id="filter1_d" x="19" y="100.328" width="40" height="39.8966" filterUnits="userSpaceOnUse" color-interpolation-filters="sRGB">
<feFlood flood-opacity="0" result="BackgroundImageFix"/>
<feColorMatrix in="SourceAlpha" type="matrix" values="0 0 0 0 0 0 0 0 0 0 0 0 0 0 0 0 0 0 127 0"/>
<feOffset dx="2" dy="4"/>
<feGaussianBlur stdDeviation="5"/>
<feColorMatrix type="matrix" values="0 0 0 0 0 0 0 0 0 0.0509804 0 0 0 0 0.329412 0 0 0 0.2 0"/>
<feBlend mode="normal" in2="BackgroundImageFix" result="effect1_dropShadow"/>
<feBlend mode="normal" in="SourceGraphic" in2="effect1_dropShadow" result="shape"/>
</filter>
</defs>
</svg>
